<svg width="1440" height="1800" viewBox="0 0 1440 1800" fill="none" xmlns="http://www.w3.org/2000/svg">
<g opacity="0.1">
<path d="M93.6137 872.277L77.1419 855.665C82.2339 851.583 87.9058 848.004 92.5868 843.09C107.158 827.816 102.417 809.428 89.2026 794.489C76.9958 780.623 62.6564 771.187 46.8988 765.524C42.2254 763.839 37.4278 762.204 32.6948 761.692C25.33 760.889 20.1954 764.17 16.6773 772.474C12.2601 782.631 10.4036 794.348 11.3147 806.317C11.8395 814.113 16.4428 817.489 20.6966 820.98C26.0922 825.402 32.0758 828.71 38.5173 832.975C38.6177 830.881 38.9553 829.036 38.7245 827.23C37.5921 817.729 36.1028 808.247 35.1289 798.737C33.4355 782.183 45.674 769.497 58.6749 775.643C72.3603 782.127 80.0496 793.3 83.6665 809.05C85.6856 817.839 84.3921 825.949 80.5699 833.961C75.5999 844.383 67.698 848.168 58.856 851.192C57.7062 851.581 56.8098 852.681 55.7625 853.49C56.6527 854.938 57.3534 856.728 58.4619 857.786C68.3883 867.067 77.8261 877.606 88.5639 884.977C96.8728 890.68 96.5816 896.773 95.2865 904.645C93.2549 916.946 94.1553 929.683 95.5983 942.208C96.1785 947.977 97.9154 953.624 100.657 958.655C103.399 963.686 107.062 967.947 111.326 971.065C115.569 974.281 129.365 970.27 132.844 965.203C139.772 955.108 146.079 944.341 153.466 934.778C164.068 921.074 175.57 908.399 186.308 894.89C191.374 888.526 195.633 881.22 200.282 874.294C191.484 866.977 181.84 868.819 175.72 877.846C169.945 886.344 163.616 894.283 157.65 902.559C154.99 906.178 152.839 910.466 149.925 913.701C148.773 914.971 145.421 915.282 144.157 914.114C138.91 909.448 134.21 903.728 129.024 898.88C124.415 894.572 119.598 890.618 114.607 887.046C109.745 883.565 108.572 878.482 112.125 874.081C118.058 866.694 123.694 858.943 129.941 851.985C140.589 840.152 153.871 834.195 168.576 831.577C180.89 829.391 192.849 830.402 205.436 835.966C215.255 840.321 222.947 846.56 228.021 857.211C230.523 862.446 231.349 868.772 232.652 874.655C234.847 884.63 234.148 894.19 233.417 904.184C232.54 914.56 230.49 924.61 227.323 934.064C223.702 945.375 216.964 954.008 209.897 962.315C199.912 974.066 188.039 982.414 175.013 988.635C169.043 991.485 162.856 994.397 156.425 995.289C152.596 995.882 148.607 995.246 144.849 993.444C141.092 991.641 137.695 988.733 134.991 985.005C132.133 981.214 129.257 980.646 125.991 982.798C125.38 983.062 124.794 983.39 124.239 983.779C114.297 994.123 103.979 987.126 93.4706 981.523C85.6828 977.366 77.583 974.237 69.6521 970.482C39.4255 956.247 9.19196 941.984 -21.0484 927.693C-22.3363 927.086 -23.7123 925.886 -24.9054 925.998C-29.5714 926.42 -30.2089 923.109 -31.024 918.573C-33.4444 905.067 -36.2452 891.615 -39.0665 878.178C-42.5866 861.374 -46.2811 844.613 -49.8748 827.838C-51.1875 821.719 -52.1591 815.518 -53.7576 809.478C-57.6722 794.881 -61.9369 780.329 -65.8651 765.675C-69.4691 752.276 -72.9713 738.856 -76.3717 725.414C-79.9367 711.296 -83.4813 697.163 -86.703 682.971C-90.2296 667.625 -93.3144 652.182 -96.788 636.823C-100.16 621.915 -103.905 607.088 -107.224 592.167C-109.106 583.711 -110.563 575.151 -112.006 566.588C-112.212 565.41 -111.582 564.108 -111.053 561.463C-109.665 564.166 -108.613 565.584 -108.176 567.181C-105.392 577.399 -99.0898 584.72 -93.4039 592.577C-90.44 596.639 -87.9163 601.235 -84.6948 604.938C-71.9922 619.555 -57.7165 631.631 -41.0556 636.519C-28.6473 640.165 -15.4695 644.465 -3.73776 636.459C6.67077 629.349 17.4053 622.755 27.2285 614.658C34.525 608.615 41.1152 601.479 46.8615 593.398C55.3406 581.429 57.0753 566.853 52.347 550.463C46.1637 529.018 33.1162 514.534 18.6916 500.791C9.61656 492.105 -0.369167 491.98 -10.2963 489.523C-23.2503 486.308 -32.9539 493.444 -43.4787 499.185C-55.5261 505.763 -63.533 517.626 -73.0048 527.628C-73.9361 528.617 -74.9395 529.575 -76.9499 531.639C-78.7867 524.093 -80.6225 517.606 -81.8285 511.036C-83.9983 499.252 -83.374 487.898 -82.3906 476.139C-80.6732 455.654 -71.9248 441.263 -61.282 427.628C-53.0489 417.057 -44.0326 407.493 -32.335 402.843C-23.0747 399.162 -13.2472 396.988 -3.51819 394.838C12.3654 391.387 28.0728 396.845 43.6236 403.044C57.1382 408.43 70.3402 415.964 80.2159 428.665C91.0325 442.592 101.268 458.653 100.033 478.248C99.2344 490.833 96.1348 503.265 87.7699 513.988C93.4466 514.815 97.9143 515.193 102.344 516.175C109.249 517.694 116.428 518.492 122.947 521.659C132.253 526.179 141.623 531.525 148.76 540.891C152.684 545.949 156.142 551.49 159.065 557.4C163.244 566.059 161.659 574.656 154.88 578.733C149.107 582.312 142.861 584.833 136.326 586.221C129.809 587.48 122.798 587.176 116.02 586.211C109.624 585.331 103.205 583.041 96.9061 580.81C92.3017 579.177 87.9237 576.133 83.3155 574.748C81.572 574.182 78.5026 575.92 77.7033 577.749C73.9692 586.453 70.8068 595.592 67.4585 604.529C65.1609 610.625 65.676 612.213 71.0341 615.327C78.5089 619.648 85.7336 624.625 93.3696 628.224C109.005 635.561 122.914 634.354 134.623 620.45C148.866 603.533 164.091 587.812 178.356 570.919C183.692 564.608 188.658 557.169 191.623 548.87C193.831 542.667 193.15 534.394 190.844 526.834C185.132 508.117 173.853 496.61 158.983 488.789C146.933 482.461 134.789 481.02 122.439 480.847C121.457 480.838 120.513 481.315 119.53 481.366C118.048 481.41 116.543 481.232 115.046 481.15C115.751 479.394 116.119 477.214 117.223 475.945C121.549 470.99 126.232 466.482 130.568 461.505C136.617 454.525 138.205 445.581 136.513 435.068C132.507 410.201 118.247 396.309 100.132 386.832C90.8367 381.847 81.3595 377.493 71.7487 373.793C66.2483 371.744 60.2975 372.43 54.6025 371.033C40.9731 367.814 28.0835 370.931 15.5722 374.284C2.6638 377.753 -9.45412 384.337 -21.7686 389.95C-27.9432 392.75 -33.6841 396.673 -39.8352 399.538C-58.6896 408.297 -74.2736 422.312 -87.8118 439.652C-97.474 452.038 -105.778 465.549 -109.655 482.607C-112.017 492.988 -114.44 503.354 -116.404 513.885C-117.319 518.803 -117.211 524.096 -117.568 529.224L-120.284 529.806C-121.746 525.516 -123.566 521.304 -124.611 516.913C-127.56 504.567 -130.138 492.13 -132.973 479.756C-136.003 466.517 -139.033 453.279 -142.295 440.108C-146.786 421.966 -151.4 403.857 -156.137 385.781C-160.897 367.546 -166.043 349.406 -170.659 331.136C-173.425 320.2 -175.441 309.083 -177.906 298.064C-178.512 295.91 -179.291 293.813 -180.232 291.806C-181.665 288.292 -183.163 284.814 -185.263 279.848C-178.803 280.494 -173.556 280.643 -168.351 281.674C-159.595 283.346 -150.87 285.778 -142.112 287.49C-130.885 289.709 -119.632 291.348 -108.403 293.478C-94.2535 296.165 -80.1202 299.311 -65.9536 301.835C-54.7266 303.827 -43.4597 305.027 -32.2145 306.895C-27.2609 307.72 -22.3396 309.632 -17.3807 310.545C-8.13285 312.256 1.06256 313.553 10.283 315.053C26.0255 317.62 41.7702 320.096 57.5058 322.833C65.891 324.298 74.2354 326.486 82.6152 327.864C90.51 329.161 98.4348 329.659 106.338 330.825C111.611 331.612 116.861 333.127 122.135 334.013C133.019 335.85 143.965 337.445 154.88 339.176C162.83 340.44 170.785 341.851 178.741 343.005C186.022 344.056 193.317 344.637 200.59 345.789C209.359 347.18 218.105 349.142 226.872 350.524C233.457 351.556 240.082 352.023 246.661 352.829C253.24 353.634 259.793 354.466 266.361 355.393C273.63 356.427 280.894 357.709 288.155 358.646C292.716 359.239 297.285 359.147 301.839 359.911C302.618 360.164 303.358 360.62 304.003 361.244C304.648 361.869 305.182 362.646 305.567 363.52C308.988 372.592 312.393 381.668 315.23 390.882C318.224 400.672 320.556 410.683 323.219 420.633C323.629 422.316 324.263 423.934 325.09 426.506C327.474 422.281 329.361 418.92 331.263 415.584C335.245 408.593 338.302 400.371 343.419 394.876C355.139 382.02 370.31 374.375 386.763 373.034C395.644 372.279 404.363 374.425 412.994 376.93C417.174 378.141 421.227 381.86 424.932 385.177C438.467 397.275 450.52 410.644 457.302 430.061C460.705 439.82 465.781 449.193 465.563 459.547C465.202 476.8 467.693 494.686 460.515 510.547C454.782 523.274 448.931 535.683 440.711 546.211C433.571 555.368 423.683 557.23 413.69 558.425C404.89 559.477 398.865 553.594 392.678 545.195C385.291 535.197 382.097 524.287 381.468 512.663C380.721 498.909 381.517 485.126 388.378 473.898C395.762 461.819 403.105 449.701 410.647 437.772C412.397 435.068 414.907 433.209 416.985 430.831C421.231 425.945 421.226 421.37 416.092 416.439C407.385 408.079 398.147 400.473 386.986 399.643C374.189 398.688 362.616 401.772 352.874 411.423C345.538 418.686 342.335 429.044 337.285 439.732C333.137 437.137 328.827 434.303 324.437 431.707C318.194 428.026 311.914 424.424 305.59 421.002C303.737 419.987 301.491 420.127 299.717 418.974C288.835 411.936 278.65 414.554 268.857 418.949C259.48 422.999 250.394 427.814 241.657 433.364C236.951 436.491 233.137 441.768 229.687 446.856C222.105 458.023 214.255 469.214 211.947 484.336C209.828 498.025 207.095 512.428 211.017 526.162C215.737 542.684 221.564 559.995 233.874 571.549C243.92 580.989 255.247 588.276 267.799 590.698C284.834 593.989 298.2 587.616 307.867 571.921C310.378 567.823 314.085 564.019 314.817 559.275C315.856 552.32 315.637 545.036 314.173 537.898C311.84 526.828 307.274 516.381 299.011 509.349C295.087 506.187 290.788 503.854 286.32 502.464C275.632 498.895 265.648 499.404 258.36 509.636C253.34 516.683 248.173 523.625 243.754 531.229C241.769 534.683 241.437 539.587 240.146 544.676C238.91 543.818 236.739 543.178 236.016 541.66C232.351 533.925 228.817 526.069 225.737 518.033C224.349 514.409 223.896 510.27 223.407 506.348C220.043 479.701 229.213 460.938 244.965 445.535C250.615 440.019 256.322 435.163 262.968 431.664C272.005 426.899 281.247 426.412 291.352 431.312C300.312 435.668 309.18 440.007 316.877 447.483C318.396 449.167 319.567 451.252 320.278 453.539C325.167 467.424 329.845 481.4 334.707 495.302C339.493 508.994 344.276 522.776 349.356 536.387C351.974 543.416 355.126 550.196 358.199 557.015C359.302 559.184 360.507 561.282 361.807 563.298L373.909 545.762C392.771 564.309 404.939 588.11 408.563 614.743C413.257 649.198 411.351 667.491 404.867 670.436C404.31 669.003 403.842 667.531 403.466 666.033C399.877 647.037 388.915 638.216 374.323 632.953C367.121 630.348 360.672 630.966 354.527 633.393C343.771 637.656 334.973 645.413 329.345 657.352C327.533 661.19 325.941 665.203 324.349 669.215C323.791 670.392 323.52 671.757 323.561 673.171C324.845 684.447 327.637 694.96 334.835 703.885C339.43 709.571 343.859 714.802 350.304 716.839C351.173 717.113 352.359 719.181 352.351 720.303C352.343 721.424 350.972 722.619 350.017 722.852C342.999 723.959 336.641 727.674 331.798 733.497C320.852 746.641 321.957 770.51 334.349 784.381C342.231 793.209 350.112 801.344 360.185 804.468C374.93 808.971 389.542 813.259 404.663 810.173C415.806 807.896 427.153 806.917 437.097 800.634C437.612 800.41 438.17 800.324 438.737 800.38C439.304 800.437 439.866 800.635 440.388 800.962C444.732 803.866 448.962 806.997 453.253 810.013C454.598 810.954 456.012 811.719 457.352 812.67C463.524 817.051 469.648 821.563 475.856 825.856C478.706 827.837 481.826 829.207 484.613 831.292C490.445 835.657 496.106 840.38 501.904 844.803C503.16 845.775 504.687 846.175 507.062 847.291C506.624 844.733 506.592 843.186 506.091 841.852C498.479 821.597 494.828 800.596 493.361 779.262C492.607 768.382 491.43 757.179 492.599 746.712C493.976 734.491 497.648 722.831 500.432 710.981C501.056 708.561 501.865 706.236 502.852 704.033C506.263 695.883 509.896 687.887 513.184 679.658C519.691 663.316 531.903 653.786 542.917 642.766C556.306 629.364 572.713 624.796 590.328 624.599C602.763 624.464 615.338 625.959 627.851 626.767C641.32 627.502 654.82 630.595 667.924 635.95C675.342 639.047 682.867 641.663 690.207 645.037C693.05 646.411 695.654 648.529 697.816 651.227C704.313 659.283 713.187 665.166 716.374 676.345C721.396 693.942 722.638 710.983 713.009 725.549C711.455 727.908 709.794 730.155 708.008 732.709C710.544 735.182 712.777 738.353 715.529 739.862C726.434 745.874 731.343 757.466 735.034 769.464C737.839 778.577 739.177 788.265 740.394 797.814C742 810.448 737.235 820.096 730.957 828.706C724.391 837.714 715.283 842.318 706.285 846.845C701.321 849.341 695.672 850.211 690.294 851.669C678.242 854.929 666.295 858.62 654.119 861.138C643.873 863.246 633.317 861.071 622.834 857.947C620.867 857.356 618.8 857.275 616.845 856.434C614.25 855.247 611.701 853.883 609.211 852.349C608.28 851.823 607.504 850.942 606.61 850.337C600.181 845.959 593.404 842.26 587.443 837.065C583.843 833.92 581.905 828.003 578.559 824.183C570.094 814.506 571.16 801.538 567.56 790.212C561.939 772.563 562.742 754.519 562.722 736.596C562.712 724.317 563.799 712.325 567.513 701.328C570.009 693.936 573.481 687.088 576.831 680.241C580.456 672.703 584.317 665.344 588.242 658.05C589.822 655.11 591.83 652.541 593.652 649.8C593.276 649.079 592.909 648.366 592.541 647.643C588.554 649.604 584.204 650.861 580.619 653.517C568.36 662.523 557.535 673.627 550.218 688.591C544.656 699.909 538.729 711.613 536.075 724.422C533.135 738.499 532.534 753.939 536.655 769.219C541.643 787.735 548.322 805.642 557.851 821.735C565.879 835.321 575.246 847.879 584.406 860.507C589.85 867.997 596.147 874.605 601.861 881.852C608.565 890.362 614.863 899.348 621.715 907.674C624.212 910.711 627.818 912.399 630.864 914.817C631.953 915.731 632.83 916.979 633.393 918.411C610.688 917.222 590.329 924.189 572.57 937.614C563.274 944.641 556.353 956.052 548.88 966.053C540.326 977.485 537.49 992.814 532.618 1006.84C529.015 1017.23 527.342 1028.27 525.316 1039.01C523.378 1049.39 524.139 1061.09 525.164 1072.16C526.587 1087.9 528.401 1103.83 531.954 1119.25C534.514 1130.36 539.531 1141.18 544.6 1151.41C549.947 1162.14 556.599 1172.05 562.892 1182.13C564.4 1184.54 566.727 1186.28 568.737 1188.24C570.59 1190.04 572.509 1191.73 574.399 1193.46L583.205 1201.53C580.08 1204.99 576.409 1205.51 572.346 1203.82C562.926 1199.89 553.521 1195.86 544.131 1191.74C538.864 1189.43 533.714 1185.62 528.409 1184.67C515.13 1182.2 503.234 1173.96 490.539 1169.24C481.928 1166.05 473.106 1164.11 464.388 1161.58C463.229 1161.24 462.104 1160.64 460.958 1160.18C455.429 1157.98 449.874 1155.88 444.361 1153.55C441.934 1152.51 439.6 1151.04 437.227 1149.77L437.514 1148.04C439.973 1148.32 442.431 1148.43 444.873 1148.36C448.795 1147.98 452.938 1148.08 456.392 1146.44C468.458 1140.7 481.486 1136.5 489.131 1122.62C490.426 1120.47 491.493 1118.13 492.31 1115.63C494.253 1108.77 495.692 1101.65 497.689 1094.84C500.913 1084.05 500.783 1072.93 496.392 1062.01C492.506 1052.22 487.947 1042.77 482.768 1033.78C476.338 1022.76 466.742 1019.03 456.489 1018.63C442.398 1018.1 431.512 1024.5 424.171 1038.25C422.733 1040.94 421.075 1043.54 420.072 1046.5C418.833 1050.15 419.797 1052.43 423.661 1051.68C426.384 1051.03 429.169 1050.66 431.988 1050.57C438.736 1050.62 442.814 1048.21 444.886 1039.5C447.847 1027 463.814 1023.4 472.872 1033.99C480.502 1042.91 486.155 1052.28 488.272 1064.27C490.389 1076.27 487.305 1086.69 482.911 1096.97C479.433 1105.04 474.849 1111.31 469.506 1117.3C460.721 1127.15 449.636 1130.69 437.66 1129.32C430.042 1128.36 422.64 1124.52 416.527 1118.35C414.107 1115.88 412.168 1112.79 410.877 1109.35C409.586 1105.91 408.983 1102.22 409.118 1098.61C409.283 1094.34 407.696 1092.76 404.876 1092.43C399.754 1091.83 394.64 1091.7 389.648 1091.38C386.944 1109.96 389.011 1115.15 407.794 1137.82C406.245 1138.42 404.75 1139.73 403.768 1139.23C399.641 1137.1 395.597 1134.69 391.656 1132.02C387.297 1129.11 383.189 1125.4 378.722 1122.81C371.074 1118.37 362.672 1115.69 355.578 1110.19C344.179 1101.36 331.528 1097.57 319.593 1090.99C311.318 1086.42 303.024 1081.86 294.912 1076.8C258.952 1054.4 220.714 1040.69 183.765 1022.08C177.779 1019.06 171.278 1017.98 165.137 1015.44C158.712 1012.8 152.407 1009.52 146.07 1006.38C145.44 1006.06 145.075 1004.8 143.847 1002.72C152.263 1002.33 159.865 1001.4 167.527 1001.75C186.196 1002.58 200.571 992.209 214.42 980.697C221.813 974.559 229.23 967.989 235.107 959.942C243.064 949.091 246.622 934.685 249.173 920.297C250.969 910.405 251.781 900.182 251.593 889.835C251.24 874.628 245.293 861.347 235.157 851.106C224.169 840.003 212.419 829.759 198.53 825.969C181.672 821.356 164.921 819.53 148.078 823.195C134.992 826.033 124.31 832.942 114.451 842.146C111.67 844.804 110.272 849.681 107.292 851.753C100.562 856.393 100.514 867.478 93.6137 872.277ZM294.531 814.804C294.588 814.146 294.642 813.479 294.682 812.786C289.575 811.167 284.479 809.327 279.347 808.001C274.41 806.716 269.387 806.235 264.463 804.869C258.084 803.103 251.763 800.819 245.422 798.747C241.973 797.605 238.402 795.404 235.118 795.599C228.71 795.99 224.415 792.46 220.493 786.541C221.043 785.482 221.66 784.481 222.341 783.545C226.557 778.636 229.148 770.646 236.645 771.595C246.337 772.821 256.031 775.176 265.73 776.401C269.478 776.856 273.333 775.808 276.943 774.741C279.757 773.898 282.202 771.807 284.911 770.533C295.905 765.332 306.234 759.777 311.79 745.726C318.542 728.611 317.89 710.823 312.138 692.899C307.666 678.981 300.489 666.218 289.845 657.121C286.318 654.285 282.574 651.907 278.685 650.032C273.619 647.392 268.318 643.522 263.264 643.277C249.177 642.595 235.797 646.337 224.402 655.133C216.185 661.482 210.98 671.762 207.112 682.489C202.156 696.235 204.472 711.222 209.675 725.179C214.212 737.417 219.769 749.396 233.828 749.103C243.174 748.908 251.326 746.548 256.546 738.076C263.493 726.807 260.502 711.45 253.653 700.399C251.177 696.426 246.845 693.142 242.932 691.45C236.111 688.495 229.478 689.545 223.515 693.938C222.364 694.783 219.511 694.378 218.512 693.175C217.315 691.753 216.641 688.787 216.856 686.734C217.071 684.681 218.29 682.532 219.417 680.762C221.422 677.59 224.022 674.946 225.764 671.58C234.372 654.964 251.953 652.151 265.575 657.026C273.27 659.779 280.656 665.945 284.99 675.636C289.053 684.74 293.791 693.521 297.308 702.857C298.716 706.596 297.57 711.451 297.709 715.814C298.048 726.28 296.542 736.354 290.907 743.549C284.01 752.35 275.799 759.618 268.291 767.725C265.328 770.922 262.092 771.086 258.324 769.26C254.291 767.27 250.207 765.6 246.242 763.524C237.886 759.179 230.248 760.484 223.777 766.159C217.407 771.925 211.341 778.14 205.604 784.777C200.449 790.578 202.63 799.902 209.824 803.103C213.281 804.639 217.069 804.698 220.628 805.961C232.923 810.298 245.13 814.963 257.405 819.314C262.774 821.217 268.202 822.738 273.627 824.28C274.627 824.373 275.602 824.136 276.447 823.594C282.477 820.66 288.497 817.719 294.531 814.804ZM624.745 763.882C626.237 760.973 626.889 759.497 627.662 758.219C632.025 751.274 636.202 744.126 640.895 737.516C644.487 732.482 646.553 724.808 653.787 725.206C657.047 725.403 660.349 726.471 663.64 727.027C665.038 727.262 666.451 727.195 667.865 727.267C667.708 725.136 668.09 722.715 667.309 720.924C665.308 716.517 663.083 712.245 660.647 708.135C656.45 700.787 652.762 692.661 647.536 686.564C640.538 678.363 632.419 671.425 624.457 664.607C620.84 661.525 616.331 659.919 613.673 665.756C610.566 672.584 607.974 679.811 604.567 686.395C599.492 696.188 599.166 707.876 599.566 718.922C600.024 730.696 602.583 743.088 606.134 754.545C611.589 772.407 622.054 787.909 635.602 798.194C637.917 799.988 640.672 800.852 643.108 802.448C650.583 807.364 657.704 813.961 665.525 816.999C672.898 819.88 681.006 819.382 688.754 819.715C691.082 819.812 693.296 817.727 695.561 816.641C694.128 813.028 693.097 809.09 691.143 805.91C689.458 803.18 686.528 801.566 684.503 799.048C674.472 786.633 662.303 778.363 649.721 771.104C645.741 768.804 641.255 767.955 636.963 766.712C633.313 765.639 629.598 764.988 624.745 763.882ZM287.679 947.116C286.387 940.19 292.29 937.594 296.204 935.037C311.572 924.987 327.829 920.891 346.836 927.932C363.841 934.233 378.065 943.359 387.593 962.583C397.122 981.806 400.981 1000.92 394.146 1020.8C391.333 1029.03 383.583 1031.47 379.132 1025.52C373.445 1017.92 370.522 1017.62 364.476 1023.79C367.872 1031.14 371.494 1038.3 374.63 1045.71C377.766 1053.12 376.039 1061.39 371.229 1063.73C369.118 1064.7 366.887 1065.33 364.59 1065.62C354.695 1066.98 339.741 1056.71 334.522 1045.56C333.331 1043 330.614 1039.4 328.981 1039.45C324.708 1039.61 320.659 1041.54 316.217 1042.85C320.387 1054.6 328.879 1058.59 336.235 1063.05C343.016 1067.19 350.864 1068.23 358.089 1071.33C365.914 1074.68 373.866 1077.3 381.658 1075.8C391.297 1073.94 399.359 1066.86 394.161 1053.29C392.123 1047.95 390.149 1042.58 388.44 1038.03C392.574 1037.7 396.854 1037.96 400.807 1036.92C412.794 1033.85 420.352 1022.26 418.594 1009.17C416.8 996.041 412.228 983.376 405.33 972.419C398.39 961.15 390.173 951.045 380.958 942.447C372.323 934.416 363.575 927.106 353.532 922.786C347.643 920.143 341.612 918.162 335.521 916.869C328.973 915.63 322.189 914.875 315.791 915.6C308.332 916.425 301.201 919.221 293.904 921.037C279.986 924.514 272.35 935.594 268.667 951.337C265.81 963.612 268.082 975.747 274.618 986.438C279.753 994.835 284.746 1004.4 294.199 1006.95C296.777 1007.65 299.56 1007.24 302.039 1008.29C314.882 1013.72 333.547 1002.83 330.948 983.146C329.964 975.808 321.477 960.333 315.461 957.815C306.527 954.097 297.503 950.865 287.679 947.116ZM13.8813 720.749C18.1585 713.913 26.6522 709.459 23.556 696.97C22.9483 694.473 21.9184 692.089 21.1667 689.627C18.9836 682.84 15.2876 676.761 10.5146 672.107C5.74153 667.453 0.0905101 664.418 -5.77208 663.36C-16.7144 661.562 -27.5516 663.557 -36.9929 669.108C-42.715 672.482 -47.3138 678.226 -52.6043 682.614C-58.6201 687.585 -60.0158 696.166 -63.5373 703.104C-67.5832 711.023 -66.9711 719.342 -65.6737 728.069C-65.4543 729.531 -63.6747 731.961 -62.709 732.003C-58.443 732.213 -54.2166 731.699 -50.4245 731.479C-50.9444 721.79 -52.0683 712.753 -51.6511 704.044C-51.3826 698.254 -50.0016 691.757 -47.1813 687.544C-41.653 679.186 -34.6129 672.124 -25.7831 668.984C-20.6118 667.141 -14.5049 666.239 -9.04712 667.585C-4.0032 668.813 0.890597 673.218 5.56062 676.836C13.1441 682.725 15.8149 697.656 10.914 705.425C7.51949 710.808 3.96574 716.031 0.632542 721.171C2.73214 724.354 5.6147 727.357 6.8465 730.999C7.99012 734.572 8.06684 738.398 7.06274 741.782C6.28329 744.022 2.87968 746.267 0.764813 745.891C-11.4089 743.703 -20.6113 725.589 -18.5866 712.567C-16.6066 700.021 -11.547 690.33 -1.76725 684.859C0.789864 683.425 2.73877 680.613 5.4025 678.033C4.14183 677.439 3.63386 676.968 3.25261 677.051C-13.3207 680.471 -26.0035 689.451 -30.9561 709.872C-34.3835 723.959 -25.6879 750.051 -12.1481 752.837C-10.6476 753.272 -9.19515 754.007 -7.85366 755.011C-0.645643 759.754 6.75892 762.072 14.4475 760.082C27.575 756.688 28.6458 749.147 23.2813 735.091C21.3185 729.863 17.1781 725.651 13.8813 720.749ZM441.7 512.245C442.523 505.468 443.894 498.765 443.969 491.883C444.071 486.232 442.772 480.368 441.94 474.608C440.088 462.182 435.879 450.697 430.161 439.837C428.188 436.087 425.991 435.899 423.8 439.137C419.862 444.859 415.412 450.093 411.878 456.123C407.826 462.847 404.264 470.008 401.226 477.535C395.258 492.795 396.237 508.692 404.253 524.341C410.725 536.979 421.652 539.747 428.809 533.399C434.737 528.133 439.98 521.835 441.7 512.245ZM61.1713 688.071L60.0718 686.358C60.3532 683.853 61.1508 681.291 60.8106 678.839C59.7705 671.465 47.23 659.69 41.0226 658.893C31.0761 657.61 22.9726 661.821 15.2349 667.369C14.3679 667.996 14.4617 670.36 14.1012 671.914C15.822 672.387 17.7043 673.523 19.2202 673.154C20.7361 672.785 21.7953 670.705 23.2079 669.747C27.7817 666.702 32.4962 665.951 38.2851 667.008C45.8486 668.396 51.0434 672.916 53.474 681.615C58.5635 699.819 53.416 716.405 52.8811 733.7C52.6772 740.316 51.9366 746.806 51.413 754.055C56.7437 752.866 60.4028 750.946 60.9236 744.807C62.0182 731.922 63.6684 719.109 63.8822 706.102C64.1273 690.848 68.1141 683.281 80.3204 681.875C85.8452 681.253 91.9837 682.889 97.5842 684.953C102.135 686.628 106.136 691.092 110.662 693.229C118.437 696.903 122.51 704.499 125.716 712.623C131.063 726.179 131.031 739.736 127.157 752.813C124.149 762.984 118.525 769.86 109.294 771.78C98.7424 773.982 86.7685 760.742 87.3908 747.764C87.8065 739.214 88.7453 731.032 93.5631 724.669C94.0176 723.798 94.3517 722.834 94.5539 721.813L93.4363 720.52C89.8444 724.465 86.3306 728.5 82.6613 732.325C76.9914 738.221 74.2833 745.764 75.7166 755.281C77.1696 765.01 80.2815 773.177 89.2411 777.365C97.7216 781.332 104.987 778.791 112.825 777.052C132.212 772.758 140.55 750.345 138.04 729.71C137.411 724.554 135.51 719.48 134.186 714.374C130.386 699.749 123.107 687.426 111.855 680.419C95.2833 670.091 75.9592 669.862 62.7141 686.032C62.1927 686.693 61.7032 687.387 61.1736 688.081L61.1713 688.071ZM154.174 795.433C157.259 795.673 160.389 796.228 163.395 795.942C171.736 795.15 179.457 792.666 181.545 781.62C182.239 777.875 181.088 773.411 180.662 769.285C179.849 761.361 172.965 752.34 166.647 752.045C158.448 751.674 150.304 750.08 144.886 760.838C139.468 771.596 143.332 789.515 154.174 795.433Z" fill="#1B1C1E"/>
<path d="M784.684 1294.95C787.15 1286.15 789.141 1278.17 791.622 1270.48C794.543 1261.37 797.876 1252.51 801.032 1243.54C801.162 1243.18 801.331 1242.85 801.441 1242.45C806.148 1228.31 810.65 1214.05 815.601 1200.05C819.04 1190.3 823.104 1180.97 826.881 1171.46C827.02 1171.11 827.217 1170.79 827.329 1170.43C832.671 1153.78 838.758 1137.49 843.182 1120.41C849.468 1096.1 846.951 1071.32 833.761 1048.73C828.085 1038.99 820.935 1029.34 811.375 1023.75C803.454 1019.11 795.839 1013.36 787.729 1009.55C779.047 1005.49 770.136 1001.1 760.757 1002.68C760.216 1002.73 759.661 1002.64 759.13 1002.41C758.599 1002.17 758.106 1001.81 757.685 1001.34C752.358 993.997 746.913 986.933 739.283 983.095C738.809 982.864 738.565 981.794 737.294 979.31C741.455 978.892 744.844 978.631 748.202 978.21C758.245 976.954 768.311 979.06 778.302 981.779C788.483 984.55 798.77 987.167 808.667 991.414C818.564 995.661 828.052 1002.22 837.882 1007.14C847.935 1012.16 856.457 1020.09 864.43 1028.67C877.149 1042.33 887.098 1058.53 892.49 1077.98C892.908 1079.35 893.423 1080.68 894.027 1081.96C894.673 1083.42 895.409 1084.83 896.412 1086.87C905.742 1084.21 914.885 1080.9 924.334 1079.09C936.644 1076.68 949.089 1074.05 961.66 1074.11C973.953 1074.18 986.52 1077.09 998.916 1079.63C1005.82 1081.04 1012.97 1083.14 1019.38 1086.9C1029.39 1092.73 1039.57 1099.03 1048.41 1107.24C1058.78 1116.72 1068.26 1127.59 1076.65 1139.6C1086.4 1153.88 1092.81 1170.71 1098.23 1187.83C1104.27 1206.91 1107.62 1226.38 1109.2 1246.07C1109.77 1253 1109.47 1259.9 1108.3 1266.52C1105.34 1282.96 1102.55 1299.62 1097.9 1315.24C1095.46 1323.46 1091.69 1331.77 1084.01 1336.19C1076.47 1340.52 1070.21 1347.61 1062.78 1352.26C1058.38 1355.01 1052.86 1355.52 1047.77 1356.78C1041.8 1358.24 1035.82 1360.45 1029.73 1360.55C1015.8 1360.78 1001.79 1360.42 987.773 1359.36C977.401 1358.5 967.02 1356.95 956.68 1354.72C945.526 1352.4 934.827 1347.89 925.302 1339.04C919.565 1333.71 913.369 1329.17 907.432 1324.17C897.527 1315.84 894.843 1303.06 892.677 1290.73C891.097 1281.74 891.72 1272.42 891.383 1263.25C890.823 1248.06 896.327 1236.2 903.777 1225.71C916.926 1207.16 933.61 1194.24 952.592 1184.88C972.37 1175.23 993.665 1169.78 1015.61 1168.73C1022.58 1168.35 1029.62 1168.57 1037.14 1168.51C1033.87 1160.72 1031.53 1152.81 1027.54 1146.24C1022.16 1137.54 1016.15 1129.41 1009.59 1121.95C1005.68 1117.43 1000.56 1114.4 995.882 1110.94C991.94 1107.93 987.982 1104.87 983.73 1102.77C980.496 1101.16 976.888 1101.05 973.398 1100.23C964.362 1098.11 955.196 1094.23 946.335 1094.23C935.218 1094.24 924.235 1096.95 913.459 1099.58C910.518 1100.3 908.131 1104.57 906.23 1107.88C903.976 1111.81 899.358 1114.05 900.945 1121.23C901.516 1123.8 898.15 1126.86 897.327 1130.11C888.845 1162.88 880.798 1195.92 872.05 1228.59C868.553 1241.66 863.533 1253.99 859.37 1266.74C857.227 1273.2 855.75 1280.13 853.356 1286.46C852.802 1287.66 852.044 1288.69 851.126 1289.5C850.207 1290.31 849.146 1290.87 848.005 1291.15C839.991 1292.81 831.873 1293.96 823.682 1294.6C811.432 1295.43 799.102 1295.57 786.788 1295.87C786.048 1295.8 785.319 1295.48 784.684 1294.95ZM1053.5 1273.93C1054.24 1264.07 1054.69 1254.23 1055.78 1244.56C1057.02 1233.21 1056.1 1221.42 1053.09 1210.05C1051.64 1204.37 1049.56 1198.85 1048.08 1193.17C1047 1189.11 1045.41 1187.88 1042.08 1189.06C1034.38 1191.93 1026.39 1193.87 1018.84 1197.18C1010.93 1200.66 1002.85 1204.28 995.947 1209.69C988.05 1215.9 981.032 1223.78 974.278 1231.72C969.223 1237.67 964.153 1244.15 960.965 1251.7C957.161 1260.68 953.356 1269.62 952.689 1280.97C951.885 1294.58 952.375 1306.36 960.676 1317.8C968.343 1328.35 977.097 1336.91 988.309 1336.83C1010.86 1336.72 1029.07 1326.69 1040.17 1303.22C1044.72 1293.67 1048.99 1283.88 1053.5 1273.93Z" fill="#1B1C1E"/>
<path d="M665.563 1078.51C669.228 1083.15 672.687 1087.1 675.742 1091.44C683.499 1102.43 691.232 1113.55 694.751 1127.58C695.612 1131.11 697.192 1134.47 698.538 1137.86C702.308 1147.34 700.605 1156.24 699.426 1165.48C697.187 1182.87 685.319 1189.99 675.001 1190.97C668.49 1191.57 661.889 1192.95 655.39 1191.87C641.266 1189.56 627.921 1183.94 616.775 1170.9C602.895 1154.68 591.497 1135.99 582.258 1116.27C574.534 1099.78 570.266 1081.45 569.425 1062.27C568.623 1044 570.151 1026.86 575.599 1010.91C578.909 1001.19 584.349 992.736 588.84 983.709C598.47 964.398 612.885 952.639 631.417 947.93C643.982 944.733 656.99 943.686 669.886 949.996C676.113 953.046 682.053 957.662 687.634 962.514C693.741 967.812 699.936 973.475 704.986 980.17C714.595 992.965 723.959 1006.66 727.916 1023.05C730.909 1035.35 732.939 1048.7 732.089 1060.87C731.19 1073.97 725.47 1085.27 713.59 1088.74C711.872 1089.2 710.055 1089.21 708.262 1088.75C694.596 1085.38 680.894 1081.86 667.205 1078.4C666.651 1078.37 666.101 1078.41 665.563 1078.51Z" fill="#1B1C1E"/>
<path d="M1216.47 1307.76C1231.2 1314.94 1245.15 1323.7 1256.42 1337.97C1263.24 1346.63 1266.29 1357.24 1268.28 1368.44C1270.48 1380.78 1268.51 1392 1265.72 1403.16C1263.33 1412.66 1258.33 1419.73 1250.93 1423.16C1240.32 1428.09 1229.5 1433.02 1218.21 1435.47C1207.69 1437.76 1196.57 1436.13 1185.39 1434.35C1175.76 1432.82 1168.29 1426.78 1160.67 1421.47C1149.67 1413.76 1138.21 1405.8 1130.49 1392.47C1124.6 1382.32 1122.76 1370.91 1120.63 1359.5C1118.02 1345.47 1120.56 1333.1 1126.2 1322.15C1129.14 1316.69 1133.09 1312.18 1137.78 1308.91C1147.5 1302.03 1158.32 1296.89 1170.06 1296.66C1179.33 1296.48 1188.94 1299 1198.32 1301.14C1204.42 1302.55 1210.43 1305.5 1216.47 1307.76ZM1210.11 1376.1C1214.29 1365.42 1212.84 1353.64 1212.55 1342C1212.3 1332.55 1210.51 1324.59 1203.29 1318.17C1198.16 1313.58 1192.78 1312.69 1187.85 1316.8C1179.43 1323.8 1175.56 1334.33 1173.06 1345.92C1172.25 1349.63 1172.65 1353.81 1172.1 1357.64C1170.14 1371.09 1169.93 1384.55 1176.48 1397.43C1178.31 1401.04 1181.53 1404.98 1184.61 1406.28C1190.3 1408.63 1201.68 1400.91 1203.94 1394.44C1206.04 1388.37 1208.06 1382.21 1210.11 1376.1Z" fill="#1B1C1E"/>
<path d="M953.046 752.967C947.936 761.659 943.34 772.098 936.701 780.053C926.617 792.155 912.488 796.347 898.048 795.078C888.006 794.194 878.044 788.359 871.418 776.145C864.114 762.63 861.833 748.545 861.378 733.482C861.096 724.438 863.613 717.397 867 710.402C867.65 709.075 868.168 707.65 868.543 706.154C872.341 690.656 879.662 677.095 889.73 666.904C899.617 656.792 910.217 647.665 920.501 638.099C920.627 637.989 920.787 637.921 920.913 637.811C927.981 631.524 928.145 631.474 932.818 641.569C944.279 666.324 951.772 692.422 954.401 719.614C955.446 730.206 953.639 740.858 953.046 752.967Z" fill="#1B1C1E"/>
<path d="M783.255 482.888C793.81 495.047 802.452 507.662 814.788 514.475C826.79 521.102 838.622 528.285 850.524 535.223L850.522 536.997L841.842 539.367C834.748 541.262 827.435 542.517 820.615 545.207C811.558 548.799 802.873 553.488 794.05 557.745C781.726 563.717 771.888 573.926 764.363 586.287C759.897 593.634 759.137 604.397 756.551 613.564C755.858 615.713 755.061 617.802 754.165 619.821C752.384 618.541 750.216 617.682 748.896 615.923C741.543 606.164 731.694 603.599 722.309 600.237C716.582 598.271 710.725 597.32 704.931 597.415C695.933 597.456 686.512 596.946 678.21 599.78C662.991 604.94 648.469 612.367 633.632 618.762C632.687 619.171 630.87 619.355 630.542 618.801C629.878 617.656 629.362 615.503 629.804 614.514C632.064 609.517 634.563 604.679 637.158 599.937C641.359 592.258 645.584 584.584 650.023 577.124C654.07 570.335 658.38 563.799 662.639 557.215C666.787 550.808 671.105 544.566 675.167 538.07C677.977 533.583 681.27 534.049 685.285 536.757C699.443 546.404 714.44 551.45 729.561 548.364C738.216 546.584 746.445 541.867 754.082 536.958C760.219 533.057 765.653 527.852 770.15 521.567C777.755 510.91 782.317 497.444 783.255 482.888Z" fill="#1B1C1E"/>
<path d="M1126.36 859.369C1127.01 856.021 1127.7 852.684 1128.31 849.316C1129.07 845.11 1130.23 840.926 1130.39 836.628C1131.31 810.721 1125.13 787.393 1106.49 769.961C1094.67 758.912 1081.41 753.614 1066.82 755.143C1059.18 755.953 1052.67 757.439 1049.13 766.274C1048.42 768.062 1046.08 768.768 1043.07 771.058C1042.03 765.179 1040.86 761.404 1040.84 757.732C1040.84 751.79 1040.54 745.306 1042.26 740.133C1046.86 726.267 1053.58 714.053 1064.45 706.237C1068.27 703.493 1072 700.505 1076.03 698.187C1088.51 691.03 1101.88 691.795 1115.39 697.988C1120.3 700.344 1124.86 703.828 1128.81 708.231C1134.61 714.653 1141.07 721.351 1144.56 729.386C1149.03 739.659 1151.38 751.29 1153.59 762.528C1155.44 771.991 1156.45 781.568 1156.6 791.093C1156.79 802.151 1155.68 813.108 1155.1 824.096C1154.53 834.615 1154.07 845.147 1153.27 855.632C1152.66 863.636 1151.52 871.539 1150.75 879.492C1150.54 881.623 1150.84 883.887 1150.6 886.007C1150.44 887.412 1149.95 889.582 1149.21 889.761C1148.19 890.01 1146.56 889.011 1145.61 887.973C1144.63 886.741 1143.92 885.247 1143.54 883.644C1140.82 873.312 1135.74 865.734 1126.91 862.069C1126.08 861.727 1125.41 860.452 1124.71 859.633L1126.36 859.369Z" fill="#1B1C1E"/>
<path d="M592.033 482.958C593.397 483.844 594.446 485.055 595.371 485.028C604.474 484.793 611.916 490.331 618.99 496.998C624.516 502.22 624.689 512.826 620.516 519.131C614.559 528.138 605.899 529.137 597.097 528.664C588.897 528.224 580.6 525.935 572.363 524.285C568.615 523.533 566.021 517.657 568.571 515.303C574.795 509.539 570.346 502.51 568.425 496.827C565.178 487.247 557.658 482.609 549.848 480.637C537.789 477.57 526.782 480.636 517.102 488.133C514.224 490.359 511.999 493.753 509.554 496.705C505.202 501.915 500.954 500.423 499.354 492.433C497.439 482.816 495.259 472.937 495.217 463.399C495.175 453.861 500.8 446.955 506.699 441.963C513.249 436.486 520.368 431.985 527.92 428.547C539.585 423.202 551.908 419.142 565.037 421.067C572.542 422.212 580.963 424.124 587.154 429.174C592.617 433.639 596.334 442.579 599.442 450.232C603.778 460.923 599.51 469.708 595.036 477.948C594.168 479.526 593.21 480.998 592.033 482.958Z" fill="#1B1C1E"/>
<path d="M374.667 791.87C358.533 783.278 347.66 771.394 343.276 752.226C341.738 745.479 343.159 740.368 347.024 735.733C354.779 726.393 364.33 719.448 374.991 715.396C382.796 712.367 390.849 714.051 398.965 715.731C404.034 716.765 409.133 717 414.126 718.379C421.332 720.379 428.203 723.867 433.926 730.229C436.227 732.789 438.453 735.467 440.606 738.211C450.055 750.283 448.753 773.46 441.537 783.2C438.902 786.753 435.097 789.363 431.365 791.282C419.717 797.257 407.164 799.58 393.992 797.348C387.046 796.187 380.173 793.481 374.667 791.87Z" fill="#1B1C1E"/>
<path d="M1221.53 965.826C1217.03 972.747 1213.35 978.396 1209.69 984.011C1208.04 986.553 1205.23 988.753 1204.89 991.648C1203.84 1000.51 1198.23 998.45 1193.65 998.238C1177.83 997.512 1161.99 996.602 1146.16 995.346C1136.76 994.602 1127.35 992.824 1117.95 992C1109.69 991.277 1101.45 991.331 1093.2 990.885C1086.47 990.541 1079.72 989.964 1072.99 989.415C1069.38 989.114 1065.77 988.418 1062.18 988.312C1058.59 988.205 1056.12 987.112 1054.18 982.899C1052.13 978.447 1053.59 975.594 1055.59 972.652C1058.87 967.891 1061.89 962.808 1065.46 958.364C1072.24 949.958 1081.48 949.135 1091.21 950.045C1097.95 950.683 1104.68 950.431 1111.41 951.29C1116.52 951.947 1121.61 954.164 1126.74 954.926C1136.32 956.35 1145.91 957.193 1155.49 958.329C1161.13 959.027 1166.77 960.239 1172.4 960.701C1184.95 961.735 1197.5 962.337 1210.05 963.352C1213.4 963.685 1216.76 964.798 1221.53 965.826Z" fill="#1B1C1E"/>
<path d="M-27.4528 597.493C-47.742 586.703 -61.1132 572.01 -71.1898 552.613C-72.7148 549.646 -73.1998 547.06 -71.222 544.499C-60.4111 530.467 -48.8426 517.469 -30.882 518.297C-21.9124 518.748 -13.0567 523.01 -5.88315 530.328C-1.49416 534.737 3.09341 539.038 6.74053 544.291C10.3876 549.545 13.8227 555.444 15.7835 561.652C18.738 570.986 20.6367 580.766 22.2618 590.443C22.6291 592.612 20.5334 596.173 18.6978 597.373C10.6898 602.595 1.17934 604.212 -8.2854 601.96C-15.6701 600.35 -23.0495 598.531 -27.4528 597.493Z" fill="#1B1C1E"/>
<path d="M1184.85 1183.79C1188.16 1176.68 1190.24 1169.97 1193.86 1164.9C1200.81 1155.14 1213.47 1153.94 1221.21 1166.78C1225.75 1174.15 1229.61 1182.06 1232.7 1190.33C1234.49 1195.27 1234.66 1201.45 1234.16 1206.72C1233.29 1215.7 1232.07 1224.81 1229.62 1233.13C1226.71 1243 1221.95 1251.67 1213.68 1256.42C1203.34 1262.35 1198.83 1257.66 1191.93 1249.32C1185.04 1240.99 1182.98 1230.7 1182.9 1220.45C1182.81 1207.88 1184.17 1195.47 1184.85 1183.79Z" fill="#1B1C1E"/>
<path d="M686.443 487.794C686.281 488.448 686.283 489.051 686.088 489.139C680.529 491.601 675.079 494.443 669.374 496.337C660.993 499.11 658.133 498.013 653.268 488.58C649.425 481.136 645.65 473.051 643.985 464.859C640.281 446.704 653.216 433.284 663.856 430.655C674.069 428.119 684.224 425.281 694.528 423.248C703.053 421.559 711.243 423.874 717.788 432.522C719.328 434.75 720.477 437.309 721.155 440.023C724.751 452.915 723.916 465.777 723.791 478.624C723.735 484.987 723.753 491.361 723.736 497.724C723.735 501.28 723.154 503.809 720.024 505.561C714.124 508.899 708.736 513.38 702.444 517.873C699.22 509.743 699.704 502.791 701.045 496.165C703.878 482.075 702.785 467.691 700.735 453.135C699.672 445.47 694.77 441.82 689.709 439.337C683.586 436.311 678.191 439.051 674.009 443.902C671.761 446.509 670.105 449.963 668.562 453.32C663.593 464.207 670.956 476.578 678.634 482.891C680.963 484.84 683.666 486.083 686.443 487.794Z" fill="#1B1C1E"/>
<path d="M1093.25 832.986C1091.36 836.795 1089.55 841.137 1087.16 844.91C1086.56 845.672 1085.83 846.257 1085.01 846.628C1084.18 846.999 1083.29 847.148 1082.37 847.065C1068.27 844.754 1056.6 836.846 1048.87 821.345C1044.98 813.516 1041.22 805.379 1038.55 797.046C1036.63 791.065 1036.34 784.401 1035.79 778.036C1035.5 774.572 1036.64 773.184 1040.4 772.952C1054.11 771.983 1066.72 777.124 1078.08 786.75C1082.84 790.781 1086.82 797.995 1089.02 804.589C1091.75 812.73 1092.28 821.724 1093.69 830.355C1093.81 831.049 1093.45 831.828 1093.25 832.986Z" fill="#1B1C1E"/>
<path d="M1337.98 729.78C1359.99 725.64 1378.07 713.829 1389.54 690.248C1393.13 692.909 1393.15 695.54 1391.03 700.256C1386.51 710.269 1382.55 720.733 1382.51 733.033C1382.46 734.417 1382.3 735.78 1382.05 737.109C1380.35 748.278 1379.03 759.634 1376.86 770.582C1373.4 788.154 1369.45 805.535 1365.5 822.87C1365.2 824.211 1363.22 824.812 1362.02 825.769C1361.61 824.104 1360.57 822.16 1360.87 820.837C1365.79 798.167 1359.9 775.978 1352.5 754.402C1349.48 745.532 1343 738.035 1337.98 729.78Z" fill="#1B1C1E"/>
<path d="M382.241 698.905C380.915 699.228 379.218 700.304 377.512 700.056C363.455 698.377 351.208 691.304 342.67 676.614C336.859 666.628 338.72 658.439 347.612 651.233C354.225 645.88 361.906 644.783 370.199 646.726C378.709 648.705 387.907 663.404 386.904 673.632C386.292 679.892 387.591 686.846 382.632 691.371C381.654 692.402 382.355 695.876 382.241 698.905Z" fill="#1B1C1E"/>
<path d="M262.587 566.661C258.353 563.086 253.74 559.999 250.058 555.725C248.236 553.613 246.732 548.492 247.517 546.142C250.916 535.964 256.567 527.249 266.432 526.68C274.166 526.374 282.019 527.764 289.613 530.784C294.946 532.903 299.672 538.597 304.53 542.921C305.156 543.482 305.572 546.045 305.141 546.586C299.647 553.5 296.275 563.79 287.748 566.033C279.858 568.152 271.645 571.647 262.587 566.661Z" fill="#1B1C1E"/>
<path d="M1039.12 611.147L1054.45 599.492C1054.27 595.038 1058.57 593.685 1061.73 590.569C1067.97 584.285 1075.1 579.337 1082.85 575.91C1093.22 571.403 1107.61 575.825 1113.42 591.764C1114.36 594.339 1114.54 597.316 1114.74 600.109C1115.28 607.24 1115.02 614.433 1118.59 621.14C1118.89 621.683 1117.99 623.059 1117.26 625.159C1115.82 622.746 1114.81 621.22 1113.96 619.575C1110.38 612.651 1106.55 606.521 1098.93 606.394C1096.68 606.348 1094.33 603.691 1091.94 603.055C1074.41 598.407 1058.15 600.503 1043.58 611.26C1042.4 611.937 1041.16 612.467 1039.88 612.845C1039.61 612.257 1039.37 611.701 1039.12 611.147Z" fill="#1B1C1E"/>
<path d="M464.038 696.674C461.209 705.336 455.597 706.197 448.06 701.554C437.58 695.042 429.154 685.098 427.047 670.11C426.195 664.038 428.031 659.639 432.175 656.808C436.196 654.066 439.987 654.104 444.798 657.281C455.133 664.115 460.805 674.323 463.435 687.272C464.042 690.294 463.856 693.519 464.038 696.674Z" fill="#1B1C1E"/>
<path d="M537.546 505.978C543.46 509.065 548.646 513.022 552.185 520.174C554.515 524.896 555.811 529.196 553.515 533.717C550.978 538.663 546.182 538.949 542.099 538.14C535.405 536.864 528.792 534.576 522.418 531.332C517.56 528.79 513.259 524.181 508.934 520.133C508.144 519.395 507.899 516.641 508.288 515.269C511.35 504.332 524.606 499.124 537.546 505.978Z" fill="#1B1C1E"/>
<path d="M1190.24 746.511C1190.01 729.907 1184.95 714.627 1178.38 698.696C1179.23 698.391 1180.41 697.479 1181.58 697.619C1193.74 699.137 1205.9 700.803 1218.05 702.51C1219.22 702.638 1220.37 703.106 1221.41 703.871C1222.57 704.981 1223.64 706.216 1224.61 707.559C1223.7 708.774 1222.69 709.875 1221.6 710.848C1216.21 714.774 1210.15 717.756 1205.5 722.69C1201.63 726.763 1199.36 733.01 1196.46 738.331C1194.86 741.256 1193.37 744.284 1191.83 747.264L1190.24 746.511Z" fill="#1B1C1E"/>
<path d="M1357.5 1056.45L1341.09 1059.99C1343.15 1051.96 1344.91 1045.35 1346.47 1038.65C1347.19 1036.07 1347.51 1033.31 1347.42 1030.5C1347.23 1028.14 1346.26 1024.23 1345.04 1023.73C1342.51 1022.77 1339.87 1022.93 1337.61 1024.16C1332.66 1027.16 1331.52 1026.63 1326.84 1017.7C1324.22 1012.7 1325.42 1010.05 1329.06 1007.73C1336.78 1002.81 1344.78 1004.79 1351.87 1010.57C1359.31 1016.63 1361.28 1026.11 1360.1 1036.05C1360 1036.82 1359.95 1037.83 1359.53 1038.27C1355.08 1043.18 1356.04 1049.73 1357.5 1056.45Z" fill="#1B1C1E"/>
<path d="M120.863 961.79C115.565 961.098 114.571 955.001 114.267 949.796C113.519 937.29 111.542 924.618 113.926 912.379C114.612 908.865 116.066 907.283 118.777 909.218C123.572 912.755 128.109 916.851 132.755 920.732C133.826 921.758 134.951 922.696 136.12 923.538C140.423 926.175 140.984 928.911 138.223 933.367C132.58 942.506 127.039 951.669 120.863 961.79Z" fill="#1B1C1E"/>
<path d="M1002.41 546.557C993.312 543.087 988.252 514.614 994.362 500.3C996.861 502.158 999.388 504.029 1001.89 505.887C1002.32 506.208 1002.64 506.764 1003.07 507.105C1005.73 509.21 1009.86 510.8 1010.69 513.511C1011.52 516.221 1009.16 520.192 1008.27 523.628C1006.25 531.291 1004.35 538.954 1002.41 546.557Z" fill="#1B1C1E"/>
<path d="M232.555 697.551C240.036 701.504 243.457 706.783 246.06 712.726C249.505 720.613 249.592 728.853 248.544 736.883C247.76 742.898 240.115 745.135 235.109 740.431C227.834 733.634 221.565 725.691 220.544 714.173C220.225 710.605 220.11 707.038 220.202 703.499C220.235 702.283 220.994 700.454 221.809 700.206C225.871 698.95 230.062 698.128 232.555 697.551Z" fill="#1B1C1E"/>
<path d="M294.825 959.403C306.269 961.758 313.135 984.888 310.158 996.468C308.22 1004.01 298.784 1005.81 293.589 999.214C280.748 982.975 280.75 977.21 286.334 958.855C286.652 957.787 288.512 956.918 289.608 957.067C291.403 957.383 293.158 958.59 294.825 959.403Z" fill="#1B1C1E"/>
<path d="M161.521 757.948C164.069 763.271 166.695 766.871 167.502 770.845C168.466 775.562 171.339 780.737 168.016 785.656C166.17 788.393 164.441 788.418 162.056 786.928C157.037 783.792 151.859 768.125 154.563 762.742C155.602 760.647 158.439 759.966 161.521 757.948Z" fill="#1B1C1E"/>
<path d="M-537.771 690.288L-16.6423 929.668L-17.2727 912.927L-64.0113 756.637L-111.686 565.353L-120.705 528.63L-119.068 507.892L-103.149 433.8L21.766 344.27L293.04 393.324L300.187 360.058L-381.387 46.9794L-537.771 690.288Z" fill="#1B1C1E"/>
</g>
</svg>
