<svg id="Layer_1" data-name="Layer 1" xmlns="http://www.w3.org/2000/svg" xmlns:xlink="http://www.w3.org/1999/xlink" viewBox="0 0 1440 2275.4"><defs><style>.cls-1{fill:#1b1c1e;}</style><image id="image" width="2000" height="2000" xlink:href="sm/echo/cardboard_seamless.jpg"/></defs><use transform="scale(0.72 0.72)" xlink:href="#image"/><use transform="translate(0 1431.49) scale(0.72 0.72)" xlink:href="#image"/><path class="cls-1" d="M117.8,412.92l2.88-8.12a70.32,70.32,0,0,0,6.72,4.71c7.49,4.1,12.87.35,15.72-6.33a38.84,38.84,0,0,0,2.82-19.46,29.47,29.47,0,0,0-1-5.92c-.93-2.95-2.86-4.61-6.22-5.12a22.53,22.53,0,0,0-12.2,1.4c-2.52,1-2.9,3.15-3.38,5.17-.6,2.55-.74,5.22-1.12,8.17a11,11,0,0,0,2-.51c3-1.42,5.93-3,9-4.34,5.27-2.37,11.51,1.09,11.57,6.78a14.47,14.47,0,0,1-7.12,13.18,11.44,11.44,0,0,1-8.84,1.36c-4.3-.86-6.85-3.54-9.31-6.67a5.68,5.68,0,0,0-1.27-1,6.94,6.94,0,0,0-1,1.49c-1.49,4.82-3.48,9.59-4.2,14.53-.56,3.82-2.65,4.33-5.49,4.64a39.67,39.67,0,0,0-12.53,4,12.3,12.3,0,0,0-7.1,9.1c-.38,2,3.2,6.94,5.46,7.77,4.51,1.65,9.14,3,13.54,4.89,6.32,2.71,12.43,5.88,18.7,8.67,2.95,1.31,6.09,2.21,9.17,3.31,1-4.18-1.17-7.74-5.19-9.19-3.78-1.38-7.47-3-11.21-4.49-1.64-.66-3.43-1.06-5-1.86a2.5,2.5,0,0,1-1.07-2.2c.71-2.52,1.86-4.94,2.64-7.46a51.71,51.71,0,0,0,1.61-6.83c.38-2.26,1.89-3.24,3.94-2.31,3.44,1.55,7,2.94,10.29,4.66,5.7,2.92,9.85,7.48,13.12,12.93a30.06,30.06,0,0,1,4.53,14.8c.14,4.27-.7,7.91-3.44,11-1.35,1.51-3.33,2.48-5.09,3.6-3,1.88-6.29,2.59-9.76,3.34a40.92,40.92,0,0,1-11,.71c-4.38-.24-8.36-2-12.29-3.87a49.56,49.56,0,0,1-14.49-10.86,34.16,34.16,0,0,1-5.25-6.55,9.49,9.49,0,0,1,0-9.4,2.69,2.69,0,0,0-.73-3.73,4.76,4.76,0,0,0-.61-.58c-5.08-2.81-4.42-7.55-4.25-12.21.12-3.46-.15-6.94-.18-10.41Q80.8,393.87,80.6,374c0-.57.17-1.23-.06-1.68-.9-1.77.1-2.36,1.49-3.15,4.12-2.33,8.17-4.81,12.21-7.3,5.05-3.1,10.06-6.27,15.09-9.4,1.84-1.14,3.76-2.16,5.52-3.4,4.25-3,8.43-6.19,12.69-9.23q5.85-4.19,11.77-8.25c4.15-2.84,8.3-5.68,12.53-8.4,4.56-2.95,9.23-5.75,13.81-8.68s8.79-5.84,13.25-8.67c2.52-1.61,5.15-3.06,7.78-4.5.36-.2.9-.09,1.87-.16a11.51,11.51,0,0,1-1.44,1.71c-3,2.14-4.4,5.35-6.1,8.37-.88,1.57-2,3-2.72,4.66-2.83,6.46-4.55,13.26-3.48,20.25.8,5.21,1.51,10.78,6.1,14.52,4.07,3.32,8,6.82,12.33,9.8A49.13,49.13,0,0,0,203.55,366c5.39,2.07,10.55,1.24,15.27-2.29,6.17-4.62,8.9-11.19,11.15-18.23,1.43-4.42-.15-8.32-.94-12.44-1-5.38-5-8.42-8.64-11.92-4.16-4-9.43-5.91-14.32-8.56-.48-.26-1-.55-2-1.12,2.22-1.5,4.1-2.88,6.1-4,3.59-2.06,7.49-3,11.59-3.82,7.14-1.44,13.38.48,19.67,3.22,4.88,2.11,9.55,4.63,13,8.71a97.88,97.88,0,0,1,7.37,10.39c3.74,5.82,4.46,12.5,4.92,19.19.39,5.82,0,11.74-2.63,16.89-2.9,5.65-6.61,11.29-13.37,12.83a21.74,21.74,0,0,1-14-1.09c.65,2.3,1.25,4.08,1.64,5.9.61,2.85,1.52,5.72,1.52,8.59,0,4.09-.27,8.29-2.24,12a29.48,29.48,0,0,1-3.85,5.71c-2.22,2.52-5.36,2.79-7.83.58a30.41,30.41,0,0,1-5.52-6.45,31.82,31.82,0,0,1-3.3-7.91,45.56,45.56,0,0,1-1.3-8c-.2-2,.1-4-.18-5.91a2.89,2.89,0,0,0-1.92-1.88c-3.52-.55-7.1-.84-10.63-1.22-2.42-.27-2.87.1-3,2.5-.23,3.36-.72,6.69-.68,10,.09,6.84,2.75,12.13,9.31,15.25,8,3.8,15.72,8.11,23.7,11.92a28.94,28.94,0,0,0,9.54,2.89,10.84,10.84,0,0,0,7.25-2.58c5.33-4.15,7.35-9.73,7.55-16.33.16-5.34-1.33-10.21-3.29-15-.15-.38-.47-.7-.64-1.08-.26-.57-.44-1.18-.66-1.77a7.5,7.5,0,0,1,2.1.31c2.36,1.18,4.63,2.53,7,3.71a10.19,10.19,0,0,0,9.82-.41c7.67-4.13,10-11.11,10.23-19.14a109.2,109.2,0,0,0-.25-12.4c-.21-2.35-1.41-4.59-1.87-7-1.14-5.64-4.28-10.34-7.44-14.86-3.26-4.67-7.43-8.71-11.32-12.92-1.94-2.11-4.19-3.94-6.14-6a62.4,62.4,0,0,0-21.24-14.54c-5.72-2.48-11.59-4.32-17.93-4.07-3.86.15-7.73.28-11.57.6a41,41,0,0,0-5.32,1.13l-.64-1a41.12,41.12,0,0,1,3.61-3c3.65-2.43,7.4-4.71,11.08-7.09,3.94-2.55,7.88-5.09,11.76-7.72q8-5.43,15.93-11c5.33-3.74,10.57-7.61,15.93-11.29,3.21-2.21,6.61-4.14,9.89-6.24a10.53,10.53,0,0,0,1.72-1.55c.94-.92,1.86-1.86,3.18-3.19.84,2.58,1.64,4.64,2.14,6.77.87,3.58,1.47,7.23,2.33,10.82,1.08,4.59,2.36,9.14,3.47,13.73,1.41,5.79,2.65,11.62,4.11,17.39,1.16,4.58,2.59,9.09,3.8,13.66.53,2,.69,4.12,1.19,6.15.93,3.77,2,7.49,3,11.23,1.7,6.39,3.43,12.78,5.08,19.18.87,3.42,1.5,6.89,2.4,10.3.85,3.2,2,6.34,2.87,9.54.59,2.13.94,4.33,1.5,6.47,1.16,4.43,2.4,8.86,3.6,13.28.87,3.23,1.69,6.47,2.6,9.69.83,2.94,1.82,5.84,2.62,8.79,1,3.55,1.73,7.16,2.69,10.72.73,2.67,1.65,5.29,2.45,7.94s1.59,5.28,2.34,7.93c.84,2.94,1.59,5.9,2.46,8.82.54,1.84,1.32,3.6,1.8,5.46a2.2,2.2,0,0,1-.6,1.82c-2.48,2.27-5,4.53-7.59,6.58-2.79,2.18-5.76,4.12-8.66,6.18-.49.34-.93.75-1.66,1.34l4.66,1.27c3,.83,6.24,1.17,8.91,2.6a33.18,33.18,0,0,1,14.37,14.62,35.59,35.59,0,0,1,3,10.61,13.6,13.6,0,0,1-.82,5.5c-1.85,6.51-4.36,12.58-9.76,17.23-2.71,2.33-5,5.27-8.53,6.25-5.83,1.64-11.41,4.46-17.89,3.3-5.19-.92-10.3-1.92-15.16-4-4.23-1.83-6.46-5.49-8.48-9.26-1.79-3.31-.8-6.27,1-9.54a16.55,16.55,0,0,1,9.06-7.72c4.49-1.71,9.23-2.82,14.1-1.31,5.25,1.63,10.5,3.24,15.72,4.94a28.11,28.11,0,0,1,3.35,1.75c2.33,1.15,3.86.68,4.68-1.83,1.38-4.25,2.42-8.63.89-13.06-1.77-5.08-4.68-9.27-9.5-12.06-3.62-2.11-7.61-2.29-12-3.15.19-1.88.44-3.85.6-5.83.21-2.81.4-5.63.51-8.44,0-.83-.37-1.69-.27-2.5.58-5-1.95-8.65-5-12a100.68,100.68,0,0,0-9.26-9.1,21.38,21.38,0,0,0-6.46-3.27c-5-1.8-10-3.7-15.43-3-4.93.59-10.2,1-14.16,4-4.76,3.55-9.61,7.6-11.47,13.58a28.35,28.35,0,0,0-.89,15.18,17.87,17.87,0,0,0,12.8,13.66c1.78.56,3.66,1.61,5.37,1.4a17.94,17.94,0,0,0,7.05-2.45c3.32-2,6.08-4.91,7.09-8.85a15.79,15.79,0,0,0,.24-5.65c-.55-4.53-2.34-8.36-6.95-10.14-3.18-1.23-6.34-2.52-9.61-3.46-1.47-.42-3.17,0-5.08,0,.08-.57-.06-1.48.33-1.92,2-2.22,4.05-4.41,6.24-6.43a14.28,14.28,0,0,1,3.53-2.12c8.38-4.06,16.15-2.42,23.87,2.12a37.67,37.67,0,0,1,7.57,5.58,14.84,14.84,0,0,1,4.74,11c0,3.94,0,7.84-1.27,11.6a4.72,4.72,0,0,1-1.47,1.95c-3.85,3.34-7.77,6.6-11.63,9.93s-7.64,6.56-11.37,9.94c-1.93,1.74-3.69,3.67-5.47,5.57a21.73,21.73,0,0,0-1.52,2.05l7.84,2.9c-3.14,9.26-9.13,16.45-17.45,20.61-10.77,5.38-17.21,6.52-19.25,4.3a12.17,12.17,0,0,1,1.25-1c5.77-3.35,6.94-8.53,6.33-14.75a13.55,13.55,0,0,0-3.37-7.66,20.93,20.93,0,0,0-12.11-7.33c-1.58-.31-3.18-.52-4.79-.72a2.76,2.76,0,0,0-1.45.1c-3.56,1.66-6.63,3.83-8.45,7.56-1.15,2.37-2.18,4.63-1.82,7.35a1.47,1.47,0,0,1-.82,1.16c-.38.11-1-.3-1.24-.65a14.76,14.76,0,0,0-6.52-6,12.54,12.54,0,0,0-16.62,6.24c-1.68,4-3.12,7.89-2.52,12.13.89,6.2,1.83,12.33,5.32,17.9,2.58,4.1,4.75,8.42,8.47,11.64a1.72,1.72,0,0,1,.43,1.32c-.27,2-.63,4-.94,5.94-.1.62-.12,1.25-.22,1.87-.46,2.85-1,5.7-1.41,8.56-.2,1.31-.15,2.67-.39,4-.51,2.72-1.17,5.41-1.71,8.12a13,13,0,0,0,0,2.27,10.83,10.83,0,0,0,1.67-.94A61.6,61.6,0,0,1,214,558.93c3.52-1.42,7.08-3,10.77-3.66,4.32-.72,8.82-.5,13.24-.63a14.61,14.61,0,0,1,2.72.22c3.28.49,6.55,1.08,9.84,1.51,6.53.85,11.7,4.62,17.18,7.77,6.67,3.83,10.87,9.74,13.8,16.58,2.07,4.82,3.61,9.87,5.38,14.83a58.47,58.47,0,0,1,3.44,16.54c.17,3.21.52,6.41.59,9.61a8.17,8.17,0,0,1-.84,3.6c-1.64,3.36-2.16,7.42-5.39,9.82-5.07,3.77-10.57,6-17,3.76-1-.36-2.06-.77-3.21-1.2a15.09,15.09,0,0,0-1.17,3.66c-.24,4.87-3.32,8-6.74,10.65a47.8,47.8,0,0,1-8.61,5c-4,1.93-8,1.07-11.88-.49-4.08-1.62-7.11-4.69-10.09-7.73a43.12,43.12,0,0,1-4.21-5.73c-3.05-4.35-6.23-8.62-9.06-13.1-2.37-3.77-3.36-8.1-4-12.51-.12-.82-.43-1.64-.47-2.48a29.64,29.64,0,0,1,.13-3.4c0-.41.19-.81.25-1.22a76.07,76.07,0,0,1,1.32-8.83c.47-1.72,2.14-3.09,2.87-4.78,1.86-4.3,6.38-5.22,9.58-7.79,5-4,11.17-5.56,17.17-7.41a33.94,33.94,0,0,1,12.58-1.78,66.26,66.26,0,0,1,8.58,1.45c3.11.64,6.2,1.38,9.28,2.16,1.24.31,2.43.82,3.64,1.25l.54-.65a37.32,37.32,0,0,0-3.9-4c-5-3.84-10.49-6.91-16.69-8.21-4.69-1-9.57-2.1-14.29-1.81a28.15,28.15,0,0,0-14.91,4.84,60.16,60.16,0,0,0-14.13,13.67,155,155,0,0,0-8.66,14.34c-1.62,2.89-2.81,6-4.3,9-1.76,3.49-3.74,6.87-5.42,10.4-.61,1.28-.59,2.86-.9,4.3a2.82,2.82,0,0,1-.79,1.35,47.09,47.09,0,0,0-16.32-21.69c-3.87-2.9-8.82-4.41-13.38-6.29-5.22-2.15-10.81-1.67-16.3-2.12a73.07,73.07,0,0,0-12,.47c-3.78.32-7.58,1.82-11.12,3.36a100.19,100.19,0,0,0-14.66,7.5,43.53,43.53,0,0,0-8.71,8.24,111.71,111.71,0,0,0-7.3,10.29,12.08,12.08,0,0,0-1.1,2.91c-.3.91-.55,1.83-.82,2.74l-1.27,4.26a4.46,4.46,0,0,1-2.54-4q-.31-6.11-.54-12.23c-.08-2.29.35-4.68-.19-6.85-1.34-5.42-.51-10.9-1-16.33-.33-3.68-1.12-7.31-1.69-11-.07-.49,0-1-.09-1.48-.16-2.38-.36-4.76-.48-7.14,0-1.05.07-2.11.11-3.17l.62-.07a26.56,26.56,0,0,0,1.09,2.9A18.41,18.41,0,0,0,85,582.42c3.88,4.1,7.41,8.74,13.3,10.28a12.11,12.11,0,0,0,2.86.52c2.61,0,5.23-.13,7.83-.05a14.28,14.28,0,0,0,10.78-3.89,62.66,62.66,0,0,0,7.23-8.22c2.65-3.64,2.33-7.76.8-11.79A16.23,16.23,0,0,0,116,558.71a20.7,20.7,0,0,0-3.44-.74c-1.42-.11-2,.5-1.14,1.93a21.6,21.6,0,0,1,1.72,3.13c1.08,2.63,2.55,4,5.81,3.88,4.66-.14,8.47,5.7,6.39,10.32-1.74,3.89-4,7.06-7.63,9.12s-7.66,1.93-11.82,1.29a29.86,29.86,0,0,1-9-3.13,18.07,18.07,0,0,1-9.21-11.15A15.13,15.13,0,0,1,88,564a7.84,7.84,0,0,1,5.4-4.92c1.46-.38,1.73-1.16,1.38-2.29-.63-2-1.42-4.06-2.13-6C86,551.62,84.55,553,80,562.61c-.45-.54-1.14-1-1.13-1.42a45.33,45.33,0,0,1,.45-5.46c.26-2,.83-4,1-6,.24-3.44-.22-7,.46-10.31,1.11-5.35.31-10.67.58-16,.18-3.7.36-7.39.73-11.07,1.65-16.31,0-32.61.24-48.91,0-2.64-.66-5.29-.81-7.94s-.09-5.57-.07-8.36c0-.27.37-.55.87-1.24,1.49,3.24,3,6.1,4.17,9.12,2.76,7.35,8.57,11.88,14.68,16.08A54.23,54.23,0,0,0,111.47,477c4.93,2,10.33,1.88,15.56,1.39a46.61,46.61,0,0,0,10.59-2.2,16.23,16.23,0,0,0,10.29-10.4c1.93-5.42,3.45-11.05,2.46-16.85a52.3,52.3,0,0,0-7.28-19.92,35.79,35.79,0,0,0-11.81-11.14c-1.34-.8-3.2-.85-4.38-1.79C124.25,414,120.53,415.11,117.8,412.92Zm51.93,72.28.7-.15c-.29-2.15-.51-4.33-.9-6.46s-1-4.06-1.37-6.12c-.45-2.66-.71-5.36-1-8-.18-1.46,0-3.08-.62-4.34-1.17-2.45-.69-4.49.65-6.63a11.71,11.71,0,0,1,1.31.41c2.33,1.14,5.42,1.32,6.32,4.34,1.17,3.9,2,7.91,3.13,11.82a14.47,14.47,0,0,0,2.38,4.19,32.44,32.44,0,0,0,2.7,2.67c3.53,3.74,7.07,7.19,12.68,7.9a22.8,22.8,0,0,0,17.74-5.31A21.05,21.05,0,0,0,222.31,462c.06-2.24.49-4.7-.25-6.7a29.93,29.93,0,0,0-10.29-13.9c-3.46-2.54-7.75-3.51-12-3.91-5.41-.51-10.05,1.94-13.88,5.4-3.35,3-6.46,6.43-4.08,11.87,1.59,3.62,3.71,6.55,7.39,7.71,4.9,1.54,9.56-1.21,12.14-5a9,9,0,0,0,1.26-5.1,9.51,9.51,0,0,0-4-7.3,2.17,2.17,0,0,1-.55-2,2.83,2.83,0,0,1,1.88-1.31,5.53,5.53,0,0,1,2.42.38c1.39.46,2.69,1.2,4.1,1.53,7,1.63,10.77,8.19,11.35,14a11.91,11.91,0,0,1-3.07,9.48c-2.39,2.52-4.55,5.27-7.11,7.6-1,.94-2.83,1-4.27,1.49-3.45,1.22-7.07,1.67-10.39.22-4.07-1.78-7.84-4.23-11.77-6.31a3.81,3.81,0,0,1-2.14-3.72c0-1.78-.09-3.54,0-5.3a9.42,9.42,0,0,0-4.54-8.47,97.23,97.23,0,0,0-9.19-5.15,3.62,3.62,0,0,0-5.45,3.53c0,1.5.65,3,.8,4.5.55,5.23,1,10.47,1.52,15.69.23,2.29.61,4.56,1,6.83a2.32,2.32,0,0,0,.69,1q2.94,3.06,5.89,6.13Zm70.76,123.28c1.22.28,1.82.38,2.37.55,3,1,6.11,1.87,9.08,3,2.27.88,5.18.89,6.22,3.75.47,1.29.65,2.68,1,4,.15.57.4,1.11.6,1.67a6,6,0,0,0,2-.87,38.58,38.58,0,0,0,3.19-3.91c1.78-2.4,3.9-4.67,5.09-7.33a70.53,70.53,0,0,0,3.6-11.25c.44-1.73.25-3.65-2.14-4.08-2.79-.51-5.63-.77-8.39-1.42-4.11-1-8.07.12-11.7,1.41a40.14,40.14,0,0,0-10.86,6.23,26.79,26.79,0,0,0-9.82,16c-.22,1.08-.06,2.25-.2,3.36-.43,3.42-1.48,6.87-1.23,10.23.24,3.16,1.72,6.27,2.87,9.32.35.91,1.41,1.56,2.14,2.33a19.22,19.22,0,0,0,2.87-2.83c.64-.93.71-2.24,1.22-3.29,2.53-5.18,3.31-10.77,3.7-16.42a25.09,25.09,0,0,0-.61-5.42c-.23-1.53-.62-3-1-5ZM124.32,496.18c2.11-1.22,3.94.81,5.43,2.07,5.86,4.95,9.88,10.85,10.61,19,.66,7.27-.08,13.75-5,19.44s-10.65,9.17-18.42,8.56c-3.21-.25-5.29-3-4-5.36,1.62-3,1.24-4.17-1.8-5.89-1.91,2.09-3.72,4.23-5.69,6.22s-5,2.17-6.59.53a11.56,11.56,0,0,1-1.71-2.39c-2.07-3.71-1.06-10.59,1.82-13.77.67-.73,1.43-2.16,1.15-2.79a29,29,0,0,0-3.22-4.61c-3.25,2.83-3.21,6.55-3.5,9.87-.29,3.07.64,6.23.78,9.36.15,3.4.57,6.76,2.34,9.64,2.19,3.56,5.87,6,9.57,2.54,1.45-1.34,2.93-2.66,4.18-3.8a36.31,36.31,0,0,0,2.38,4.7c3,4.35,8.09,6.1,12.18,4.06A26.4,26.4,0,0,0,135,544.59,46.86,46.86,0,0,0,141.06,532a38,38,0,0,0,2.12-12.7,41.68,41.68,0,0,0-1-7.63,33.51,33.51,0,0,0-2.79-7.81,90.34,90.34,0,0,0-5.38-8c-3.43-5.05-8.38-6.88-14.25-6.69A13.23,13.23,0,0,0,109,495.15c-2,2.87-4.36,5.8-3.68,9.74a31.9,31.9,0,0,1,.83,3.19c.27,5.56,6.95,11.7,13.12,8.66,2.29-1.14,6.09-6,6-8.64C125.05,504.24,124.66,500.39,124.32,496.18Zm31.24-129.93c3,1,5.85,3.81,9.53,1.32.74-.5,1.37-1.15,2.07-1.69a13,13,0,0,0,4.41-13.2,24.09,24.09,0,0,0-7-11.56c-2.06-1.88-4.74-3.07-7.06-4.68-2.65-1.83-5.75-1.49-8.64-2.14-3.31-.76-6,.34-8.71,1.74-.45.24-1,1.18-.83,1.56.62,1.68,1.48,3.28,2.17,4.73a82,82,0,0,1,9-3.31,11.53,11.53,0,0,1,6.25,0,21,21,0,0,1,9.69,6.41,15.4,15.4,0,0,1,3.19,6.37c.41,2.09-.27,4.45-.72,6.64-.74,3.56-5.3,6.14-8.7,5-2.35-.77-4.68-1.61-6.94-2.38-.73,1.15-1.26,2.58-2.28,3.43a5.41,5.41,0,0,1-3.58,1.2,3.38,3.38,0,0,1-2.39-2c-1.25-5,3.31-10.41,8-11,4.52-.52,8.59.45,12,3.69a19.77,19.77,0,0,0,3.46,2.09c0-.56.06-.8,0-.94-3.84-6.1-8.91-10.11-16.55-9.93-5.27.12-12.59,6.19-11.32,11.75a5.51,5.51,0,0,1,0,1.9,12.76,12.76,0,0,0,1.93,9.2c3.27,4.76,6,4.4,9.8.86C153.71,370.09,154.45,368,155.56,366.25ZM295,511.27a55.63,55.63,0,0,0,7.19-1.22,36.38,36.38,0,0,0,15.17-10.74c.94-1.15.64-2-.8-2.55-2.55-.94-5-2.13-7.62-2.89a56.48,56.48,0,0,0-8.9-1.93,16.2,16.2,0,0,0-15.18,6c-3.18,3.83-2.33,8.37,1,10.5C288.5,510.2,291.46,511.59,295,511.27Zm-120.76-130,.39-.61a9.36,9.36,0,0,0,2.64-.48c2.3-1.17,4.2-7.26,3.46-9.76-1.19-4-3.92-6.73-7-9.17-.35-.27-1.12,0-1.7,0a5.64,5.64,0,0,0,.42,2.12c.37.55,1.24.75,1.79,1.2a10,10,0,0,1,3.37,5.59c.76,3.09.09,5.57-2.42,7.42-5.27,3.86-11.66,3.56-17.54,5.14-2.24.6-4.54,1-7.05,1.53,1.27,1.95,2.5,3.18,4.64,2.75,4.5-.91,9-1.59,13.44-2.85,5.15-1.47,8.33-.7,10.79,3.9a19.14,19.14,0,0,1,1.78,7c.17,1.95-.67,4-.65,5.95,0,3.4-1.84,5.77-4,7.86a17.65,17.65,0,0,1-13.22,4.7,10.65,10.65,0,0,1-9.26-5c-2.45-3.88,0-9.91,4.48-11,2.93-.72,5.82-1.2,8.74,0a3.46,3.46,0,0,0,1.11.09l.25-.56c-1.9-1-3.82-1.95-5.7-3a8.88,8.88,0,0,0-8.82-.34c-3,1.57-5.24,3.63-5.19,7.55,0,3.71,2.09,6.27,3.94,9.15,4.59,7.1,13.45,8,19.95,4.93a33.06,33.06,0,0,0,4.51-3.09c4.28-3,7.22-7.09,7.73-12.19.77-7.52-2.3-15.06-9.87-18.55l-.94-.39Zm-20.81,47.28a26.79,26.79,0,0,0,1.33,3.64c1.62,3.16,3.71,5.91,7.74,5.59,1.37-.12,2.68-1,4-1.62,2.52-1.13,4.42-4.74,3.49-7.23-1.21-3.23-2-6.57-6.48-7.57S153.59,423.74,153.38,428.57Z"/><path class="cls-1" d="M88.73,725.53c3.35.05,6.34,0,9.32.17,3.52.2,7,.58,10.55.88a3,3,0,0,0,.43,0c5.5.38,11,.66,16.5,1.14,3.82.33,7.6,1,11.4,1.44.15,0,.28.06.42.07,6.44.36,12.89,1.05,19.32,1,9.17-.06,17.05-3.6,22.47-11.06,2.33-3.22,4.4-7,4.72-11.29.26-3.57.95-7.12.9-10.67,0-3.8,0-7.72-2.08-11.21a1.55,1.55,0,0,1-.05-1.33c1.59-2.84,3.07-5.68,3.11-9.05,0-.21.32-.41.94-1.16.82,1.57,1.46,2.87,2.15,4.13a38.65,38.65,0,0,1,3.7,12.08,103.25,103.25,0,0,1,1.71,12.82c.19,4.29-.46,8.66-.51,13a40,40,0,0,1-14.83,28.57,8.53,8.53,0,0,0-1.08,1c-.39.41-.74.84-1.26,1.44,2.41,3.36,5,6.57,7.15,10.07a99.83,99.83,0,0,1,7.74,14c2,4.79,3,10,4.21,15.07a29.93,29.93,0,0,1,.9,8.72,60.86,60.86,0,0,1-2.09,13.4,64.24,64.24,0,0,1-6.24,14.33c-3.19,5.27-7.78,9.5-12.63,13.37a73.55,73.55,0,0,1-17.72,10.28,23.7,23.7,0,0,1-7,1.76,146.63,146.63,0,0,1-18,1c-3.15-.1-6.54-.71-9.27-3.25s-6.07-4.19-8.83-6.6c-1.64-1.43-2.71-3.53-4-5.38a44.25,44.25,0,0,1-4.2-6.63c-2.34-5.4-4.5-10.89-6.42-16.46a118.37,118.37,0,0,1-3.51-12.58,26.39,26.39,0,0,1,.15-13.83c.85-2.78,1.36-5.66,2.07-8.49,1.18-4.72,5-7.08,8.79-9.19,2.75-1.55,6-2.26,9-3.34,5-1.79,9.86-.87,14.58,1a59.94,59.94,0,0,1,21.61,14.79,84.08,84.08,0,0,1,15.66,22.86c1.26,2.68,2.33,5.44,3.57,8.36,2.08-2.08,4.35-3.8,5.9-6a57,57,0,0,0,5.21-9.5,28.72,28.72,0,0,0,1.46-6.47,30.07,30.07,0,0,0,.75-5.57,20.35,20.35,0,0,0-.83-4.28c-.75-3.74-1-7.71-2.39-11.16a73.73,73.73,0,0,0-7.14-12.24c-.72-1.07-2.54-1.56-4-2-1.69-.47-3.19-2-5.33-.68-.77.49-2.34-.51-3.56-.49-12.35.08-24.72.35-37.08.32-5,0-9.89-.7-14.84-1-2.51-.17-5.07,0-7.57-.31a3.77,3.77,0,0,1-2.45-1.6,102.94,102.94,0,0,1-5.11-9.11c-2.27-4.68-4.32-9.47-6.43-14.23A1.76,1.76,0,0,1,88.73,725.53ZM139.5,828c3.42-.72,6.79-1.57,10.2-2.14a27.16,27.16,0,0,0,11.11-4.61c1.67-1.15,3.18-2.53,4.84-3.69,1.18-.84,1.34-1.58.4-2.76-2.21-2.7-4.16-5.61-6.5-8.2a52.78,52.78,0,0,0-7.91-7.63,71.08,71.08,0,0,0-10.9-6.16,32.17,32.17,0,0,0-8.86-3.12c-3.62-.55-7.23-1.11-11.14-.2-4.69,1.09-8.55,2.5-11,6.91-2.28,4.07-3.72,8.36-1.87,12.72,3.7,8.76,10,14.82,19.68,16.72C131.46,826.61,135.43,827.27,139.5,828Z"/><path class="cls-1" d="M141.81,656.83c-1,1.9-1.72,3.66-2.68,5.3-2.41,4.15-4.88,8.31-9,11.12a22.55,22.55,0,0,0-2.83,2.54c-2.56,2.44-5.82,2.7-9.1,3.19-6.18.93-10.5-3-12.51-6.87-1.25-2.48-2.79-4.9-3.49-7.55-1.52-5.73-1.81-11.51.74-17.19a73,73,0,0,1,12.67-19.07,40,40,0,0,1,16-10.57,42.85,42.85,0,0,1,18.2-2.89c3.79.28,7.51,1.53,11.26,2.35A29.94,29.94,0,0,1,180,630.07c3.12,4.56,5.59,9.51,5.57,15.18a32.85,32.85,0,0,1-1.3,8.2,40.1,40.1,0,0,1-3.09,8.58c-2.72,5.06-5.78,10.12-10.63,13.35a36.27,36.27,0,0,1-12,5.53c-4.53,1-9.24-.06-12.34-4.33a5.41,5.41,0,0,1-.87-2.07c-1.09-5.67-2.14-11.37-3.21-17A3.64,3.64,0,0,0,141.81,656.83Z"/><path class="cls-1" d="M154.69,894.92c0,6.48-.68,12.81-3.62,18.67-1.79,3.55-4.84,5.83-8.27,7.76-3.77,2.13-7.85,2.52-12,2.58a11.81,11.81,0,0,1-9.1-3.69,81.86,81.86,0,0,1-9.44-11.47c-2.48-3.85-3.74-8.35-5-12.89-1-3.9-.25-7.43.29-11,.79-5.07,1.59-10.35,4.8-14.74,2.44-3.34,6-5.23,9.43-7.24a17.86,17.86,0,0,1,13.41-1.68,16.54,16.54,0,0,1,6.32,3.14c3.88,3.07,7.36,6.75,9.35,11.3,1.57,3.59,2.29,7.59,3.1,11.46A68.9,68.9,0,0,1,154.69,894.92Zm-23.92,4.58c4.26.52,8-1.26,11.82-2.57,3.12-1.07,5.49-2.59,6.47-6.06a5.2,5.2,0,0,0-2.06-6.16c-3.71-2.55-7.86-3-12.15-2.75-1.37.07-2.71.66-4.08.84-4.82.62-9.36,1.93-12.61,5.81a6.59,6.59,0,0,0-1.64,4.07c.14,2.46,4.58,6.09,7.11,6.31C126,899.18,128.39,899.33,130.77,899.5Z"/><path class="cls-1" d="M297.55,735.15c-3.74-1.09-8-1.81-11.72-3.57-5.69-2.68-9.4-7.74-11.32-13.5a12.8,12.8,0,0,1,2-12.31c3.33-4.24,7.68-6.58,12.64-8.31a15.54,15.54,0,0,1,8.65-.2,7.82,7.82,0,0,0,1.67.17,32.3,32.3,0,0,1,16.58,4.19c5,2.81,9.78,6,14.65,9l.17.13c3.25,2.1,3.29,2.16.68,5a67.5,67.5,0,0,1-22.62,16.45C305.56,733.73,301.7,734.13,297.55,735.15Z"/><path class="cls-1" d="M360.34,641.19c-2.35,5.37-5.17,10-5.44,15.54-.27,5.35-.75,10.7-1.13,16l-.6.18-2.2-3.13c-1.79-2.57-3.4-5.29-5.41-7.66-2.68-3.16-5.66-6.06-8.52-9a33.17,33.17,0,0,0-14.38-8.61c-3.19-1-6.92-.17-10.41-.23a23,23,0,0,1-2.48-.28,8.26,8.26,0,0,1,.45-2.45c2.07-3.87,1.33-8,.93-12a24.77,24.77,0,0,0-1.89-7.06c-1.47-3.5-2.84-7.22-5.14-10.16-4.2-5.39-9.05-10.27-13.6-15.39-.29-.32-.65-1-.52-1.2a1.77,1.77,0,0,1,1.32-.73c2,.37,4.06.84,6.07,1.36,3.26.84,6.51,1.7,9.73,2.66,2.93.87,5.82,1.87,8.72,2.85s5.61,2,8.45,2.9c2,.64,2.34,2,2.08,3.81-.92,6.5-.17,12.86,3.32,18.43a38.7,38.7,0,0,0,7.81,8.37,26.78,26.78,0,0,0,7.76,4.66A25.91,25.91,0,0,0,360.34,641.19Z"/><path class="cls-1" d="M290.13,813.59c1.23-.09,2.46-.17,3.68-.28a29,29,0,0,0,4.59-.5c8.82-2.32,15.62-7.13,18.43-16.18a21.63,21.63,0,0,0-1.5-17c-1.51-2.89-3.07-5.27-6.6-5.74-.72-.09-1.33-.93-2.59-1.87a26.48,26.48,0,0,1,4.1-2.24c2-.61,4.11-1.4,6.12-1.26,5.39.36,10.57,1.71,15,5.14,1.54,1.21,3.15,2.35,4.58,3.68,4.42,4.12,6.34,9.4,6.47,15.3a16.14,16.14,0,0,1-1.25,6.28c-1.2,2.92-2.4,6.13-4.52,8.31-2.71,2.8-6.22,4.92-9.62,6.94a47,47,0,0,1-9.08,4.12c-3.67,1.21-7.51,1.91-11.29,2.81-3.61.87-7.21,1.77-10.85,2.55-2.78.58-5.61,1-8.4,1.48-.75.13-1.46.49-2.21.61-.49.08-1.3.12-1.48-.15a2,2,0,0,1,0-1.59,3.11,3.11,0,0,1,1.11-1.25c3-2.13,4.72-4.89,4.51-8.7,0-.36.3-.75.46-1.11Z"/><path class="cls-1" d="M329.21,566.77c-.07.62-.31,1.15-.15,1.51,1.56,3.52.92,7-.16,10.43-.85,2.69-4.37,3.85-7.16,2.88-4-1.39-5.73-4.66-7-8.13a86,86,0,0,1-2.55-10.08c-.36-1.54,1.18-3.16,2.39-2.41,2.94,1.83,4.57-.63,6.16-2,2.68-2.25,3-5.66,2.4-8.9a19,19,0,0,0-7.84-12,23.82,23.82,0,0,0-4.1-2.06c-2.45-1.15-2.64-3-.23-4.41a43.82,43.82,0,0,1,9.05-4.6c3.18-1,6.41.47,9,2.25A46.56,46.56,0,0,1,337,536.2c3.68,4,7.05,8.37,8.54,13.68.84,3,1.57,6.51.88,9.44-.6,2.59-3,5-5.05,7-2.87,2.79-6.51,2-10,1.14C330.71,567.25,330.06,567,329.21,566.77Z"/><path class="cls-1" d="M190.44,514c.25-7.17,2.46-12.63,8.16-16.31a5.83,5.83,0,0,1,6.14-.24,32.8,32.8,0,0,1,11.35,8.78c2.29,2.73,3,6,3.79,9.37.48,2.08,1.23,4.09,1.58,6.18a16,16,0,0,1-.75,8.93c-.48,1.15-1,2.3-1.58,3.42-2.5,4.92-10.47,6.81-14.91,5a13.91,13.91,0,0,1-4.36-3.12,30.65,30.65,0,0,1-8.11-13.93A76,76,0,0,1,190.44,514Z"/><path class="cls-1" d="M270,861.62l-8-2.74c-1.12-.38-2.31-1.25-3.34-1.08-3.14.51-3.36-1.89-4-3.69-2.33-6.24-4.6-12.49-6.76-18.79-1.28-3.73-2.22-7.58-3.47-11.32-1.1-3.29-2.46-6.49-3.65-9.75-1-2.66-1.89-5.34-2.8-8-.48-1.43-.84-2.91-1.39-4.32a3.09,3.09,0,0,1,.51-3.67c1.16-1.26,2.35-1,3.66-.51,2.13.78,4.32,1.43,6.39,2.36,3.92,1.78,5.7,5.29,7,9.17.88,2.69,2.06,5.28,2.87,8,.61,2.06.69,4.27,1.27,6.35,1.08,3.87,2.36,7.69,3.54,11.54.68,2.26,1.2,4.58,2,6.82,1.69,5,3.53,9.94,5.23,14.93C269.37,858.23,269.54,859.65,270,861.62Z"/><path class="cls-1" d="M190.09,337.45c.31-9,3.06-15.73,7.91-21.66a2.1,2.1,0,0,1,2.71-.84c6.46,2.76,12.69,5.92,15.34,13a16,16,0,0,1,0,11,36.09,36.09,0,0,1-2.62,6.35,19.66,19.66,0,0,1-4.34,5.31,59.62,59.62,0,0,1-8.59,5.49,3.34,3.34,0,0,1-2.9-.67,17.65,17.65,0,0,1-5.92-10C191.05,342.33,190.46,339.27,190.09,337.45Z"/><path class="cls-1" d="M191,869.83c2.92.55,5.5.67,7.79,1.55,4.4,1.7,6.86,6.5,3.82,10.84a39.6,39.6,0,0,1-6,6.91,11.33,11.33,0,0,1-5.25,2.25,44.94,44.94,0,0,1-9.58,1c-3.78-.11-7.46-1.07-10.39-3.8-3.67-3.41-2.83-5.65-1.16-9.2s4.77-5.41,8.19-6.49C182.64,871.52,187,870.76,191,869.83Z"/><path class="cls-1" d="M343,604c-.24,0-.44.06-.51,0-1.72-1.91-3.56-3.74-5.12-5.77-2.3-3-2.39-4.2,0-7.07a27.16,27.16,0,0,1,6.43-6.06c5.48-3.31,12.07.34,14.69,4.21,2.51,3.71,5.11,7.37,7.47,11.18,1.95,3.14,2.5,6.57.67,10a6.49,6.49,0,0,1-2,2.08c-3.73,2.73-8.17,3.73-12.49,5-2.14.63-4.27,1.3-6.4,1.95a2.85,2.85,0,0,1-3.23-.64c-2.08-1.95-4.46-3.59-7-5.57a10.51,10.51,0,0,1,7-2.79c5.17-.35,9.81-2.26,14.35-4.55,2.39-1.21,2.82-3.49,2.83-5.72,0-2.7-1.78-4.51-4.09-5.64a15.36,15.36,0,0,0-4-1.15c-4.45-.81-7.39,3.33-8.26,7A25.79,25.79,0,0,0,343,604Z"/><path class="cls-1" d="M293.58,798a48.11,48.11,0,0,1-5-1.14,2.76,2.76,0,0,1-1.5-1.64c-1.52-5.73-.77-11.09,3.16-15.7a50.39,50.39,0,0,1,6.46-6.52,24.08,24.08,0,0,1,5.91-3c1.11-.48,1.77-.17,2.45,1.26a22.92,22.92,0,0,1,1.52,16.1,12.77,12.77,0,0,1-4.2,6.09c-2.28,1.91-5.2,3-7.86,4.48A3,3,0,0,1,293.58,798Z"/><path class="cls-1" d="M367.94,882.59c5,8.14,11.86,14,21.62,16-.31,1.68-1.19,1.95-3.11,1.61-4.09-.72-8.24-1.18-12.36.07a8.66,8.66,0,0,1-1.44.24c-4,.49-8,1.15-12,1.43-6.44.47-12.9.73-19.35,1-.5,0-1-.69-1.54-1.06.49-.33,1-.94,1.47-1,8.39-.43,14.86-5,20.88-10.12C364.53,888.69,366,885.4,367.94,882.59Z"/><path class="cls-1" d="M222.79,507.38a6.38,6.38,0,0,1-1.15-1.72c-1.73-5.64-1.35-11.14,2.18-16,2.4-3.29,5.44-3.41,9.3-.69a12.88,12.88,0,0,1,5.18,8.32c.72,3.52-2.7,8.62-6.29,9.28-2.19.41-4.31,1.63-6.63.17C224.88,506.48,223.83,507.12,222.79,507.38Z"/><path class="cls-1" d="M247.6,447.17a37.45,37.45,0,0,1,1.62-6,3.76,3.76,0,0,1,2.8-2c4,.28,7.79,1.58,9.59,5.36A27.38,27.38,0,0,1,264,454c.15,2.29-1,4.72-1.64,7.05a1.33,1.33,0,0,1-1.13.62c-3.21-1.43-7.2-1.68-9.34-4.76C249.91,454,247.4,451.21,247.6,447.17Z"/><path class="cls-1" d="M359,754l6.4,4.77c1.46-.53,2.61,1,4.17,1.91a33.76,33.76,0,0,1,8.34,6.71c3.2,3.57,4.06,9.63-.33,13.53a9,9,0,0,1-2.58,1.38c-2.3.94-4.75,1.58-6.41,3.67-.14.17-.74,0-1.57-.11.58-.8.92-1.36,1.34-1.86,1.73-2.11,3.16-4.23,2-7.21-.35-.88.16-2.07,0-3.06a27.81,27.81,0,0,0-10.61-18,8.56,8.56,0,0,1-1.13-1.28C358.74,754.33,358.89,754.18,359,754Z"/><path class="cls-1" d="M236.85,539c-3.36-.2-4.56-2.3-4.24-5.71.48-4.75,2.44-9.06,7.11-11.42a4.55,4.55,0,0,1,5.29.62,4.93,4.93,0,0,1,1.89,5,13.57,13.57,0,0,1-7,10.35A19.34,19.34,0,0,1,236.85,539Z"/><path class="cls-1" d="M312.64,547.94a10.77,10.77,0,0,1-2.37,7.16c-1.2,1.39-2.43,2.34-4.32,1.91-2.06-.47-2.94-2.31-3.33-4a32.77,32.77,0,0,1-.93-8.37,24.83,24.83,0,0,1,1.56-6.4c.12-.38,1-.76,1.52-.75C308.93,537.57,312.83,542.19,312.64,547.94Z"/><path class="cls-1" d="M338.3,826.81c5.52-1.8,9.81-5.35,14.08-9.55.24.3.74.67.88,1.14q2.21,7.33,4.29,14.7a3.09,3.09,0,0,1,.1,1.45,9.75,9.75,0,0,1-.72,1.62,10.44,10.44,0,0,1-1.59-.83c-2.19-1.69-4.18-3.75-6.58-5.05-2-1.08-4.46-1.32-6.71-1.9-1.24-.32-2.49-.59-3.74-.88Z"/><path class="cls-1" d="M261.76,923.89l-3.86-6c3,0,5.52,0,8-.1a8.39,8.39,0,0,0,2.89-.48c.76-.32,1.9-1.1,1.88-1.62a4.54,4.54,0,0,0-1.36-2.85c-1.81-1.62-1.82-2.12.41-4.86,1.25-1.53,2.33-1.34,3.7-.16A8.8,8.8,0,0,1,276.2,917c-.82,3.52-3.67,5.26-7.19,5.83a1.6,1.6,0,0,1-.84,0C265.81,921.58,263.77,922.63,261.76,923.89Z"/><path class="cls-1" d="M92.27,432.76c-.63-2.13,1.25-3.14,2.94-3.8,4.07-1.58,8-3.66,12.47-4,1.29-.1,2.06.3,1.85,1.56-.4,2.23-1,4.42-1.58,6.63a11,11,0,0,0-.39,1.6c-.19,1.94-1,2.45-3,1.83C100.63,435.34,96.66,434.12,92.27,432.76Z"/><path class="cls-1" d="M374.68,733.07c-.32-3.9,8.39-8.81,14.18-7.9-.22,1.16-.43,2.34-.65,3.5,0,.2-.17.38-.21.59-.28,1.25-.14,3-.91,3.62s-2.48.1-3.78.11C380.42,733,377.54,733,374.68,733.07Z"/><path class="cls-1" d="M198.89,449A9.38,9.38,0,0,1,196,455.8a12.82,12.82,0,0,1-7.68,3.46c-2.14.31-4.14-2.43-3.38-4.86,1.1-3.54,2.74-6.8,6.43-8.38a27.07,27.07,0,0,1,3.51-1.24,1.59,1.59,0,0,1,1.37.29C197.34,446.52,198.3,448.07,198.89,449Z"/><path class="cls-1" d="M121.37,500.23c1.07,4.7-5.56,9.76-9.92,9.79-2.84,0-5-3.46-3.61-6.16,3.35-6.68,5.28-7.27,12.33-7,.41,0,1,.65,1.13,1.09A9.09,9.09,0,0,1,121.37,500.23Z"/><path class="cls-1" d="M167.12,427.56c-1.37,1.54-2.14,2.94-3.34,3.66-1.43.86-2.69,2.51-4.88,1.73a1.81,1.81,0,0,1-1.39-2.19c.23-2.28,4.63-5.91,6.87-5.41C165.26,425.54,165.94,426.57,167.12,427.56Z"/><path class="cls-1" d="M80.61,375.64l107.85-74.33a13.76,13.76,0,0,1,4-3.94,15.94,15.94,0,0,1,5.79-2,51.54,51.54,0,0,1,9.31-1.07c9.08-.12,13.62-.18,15.28.05a43.24,43.24,0,0,1,19.82,8.37c42.23,23.9,54.84,46.67,58.17,63.59,1.8,9.21,2.19,23.47,9.21,44.8a187.54,187.54,0,0,0,13.12,30.49l1-445.25L80.69-1.33Z"/></svg>