<?xml version="1.0" encoding="utf-8"?>
<!-- Generator: Adobe Illustrator 27.0.1, SVG Export Plug-In . SVG Version: 6.00 Build 0)  -->
<svg version="1.1" id="Layer_2_00000046321305941198272220000016568362553624462725_"
	 xmlns="http://www.w3.org/2000/svg" xmlns:xlink="http://www.w3.org/1999/xlink" x="0px" y="0px" viewBox="0 0 3066.6 8192"
	 style="enable-background:new 0 0 3066.6 8192;" xml:space="preserve">
<style type="text/css">
	.st0{fill:#FFFFFF;}
</style>
<g id="_63R1u6.tif">
	
		<image style="overflow:visible;enable-background:new    ;" width="1826" height="1397" xlink:href="436CB4B8F0BCD7CC.png"  transform="matrix(0.4289 0 0 0.4289 597.3416 1154.8794)">
	</image>
</g>
<g>
	<g id="lNtDSj.tif">
		
			<image style="overflow:visible;enable-background:new    ;" width="1672" height="1214" id="Layer_0" xlink:href="436CB4B8F0BCD7CD.png"  transform="matrix(0.4716 0 0 0.4716 600.9608 1898.8097)">
		</image>
	</g>
	<rect x="600.8" y="2455.4" class="st0" width="789.8" height="49.2"/>
	<g id="HciYQN.tif">
		
			<image style="overflow:visible;enable-background:new    ;" width="1358" height="505" xlink:href="436CB4B8F0BCD7CB.png"  transform="matrix(0.4639 0 0 0.4639 716.2702 2271.5154)">
		</image>
	</g>
</g>
<g id="NLtc6l.tif">
	
		<image style="overflow:visible;enable-background:new    ;" width="963" height="1018" xlink:href="436CB4B8F0BCD7D4.png"  transform="matrix(0.811 0 0 0.811 604.4897 189.7363)">
	</image>
</g>
<g id="_8SRgtq.tif">
	
		<image style="overflow:visible;enable-background:new    ;" width="1014" height="1759" id="Layer_0-2" xlink:href="436CB4B8F0BCD7D7.png"  transform="matrix(0.3405 0 0 0.3405 607.2915 2634.8098)">
	</image>
</g>
<g>
	<g id="xo2eJr">
		
			<image style="overflow:visible;enable-background:new    ;" width="261" height="665" xlink:href="436CB4B8F0BCD7D5.png"  transform="matrix(0.8749 0 0 0.8749 603.2871 4020.4399)">
		</image>
	</g>
	<g id="xo2eJr-2">
		
			<image style="overflow:visible;enable-background:new    ;" width="256" height="599" xlink:href="436CB4B8F0BCD7DB.png"  transform="matrix(0.9682 0 0 0.9682 849.2323 4021.6577)">
		</image>
	</g>
</g>
<g id="Gu3IF4.tif">
	
		<image style="overflow:visible;enable-background:new    ;" width="1001" height="1838" id="Layer_0-3" xlink:href="436CB4B8F0BCD7DC.png"  transform="matrix(0.3117 0 0 0.3117 603.8837 4688.2622)">
	</image>
</g>
<g id="Dswx30.tif">
	
		<image style="overflow:visible;enable-background:new    ;" width="1662" height="1565" id="Layer_0-4" xlink:href="436CB4B8F0BCD7DF.png"  transform="matrix(0.4697 0 0 0.4697 600.3137 7452.7056)">
	</image>
</g>
<g id="jZOlBQ.tif">
	
		<image style="overflow:visible;enable-background:new    ;" width="2380" height="993" xlink:href="BEB61EBACB4B30DB.png"  transform="matrix(0.3286 0 0 0.3286 1661.9492 0)">
	</image>
</g>
<g id="CPTt5F.tif">
	
		<image style="overflow:visible;enable-background:new    ;" width="729" height="1633" id="Layer_0-5" xlink:href="BEB61EBACB4B30D9.png"  transform="matrix(0.2934 0 0 0.2934 1664.4512 457.8181)">
	</image>
</g>
<g id="HfrTFF">
	
		<image style="overflow:visible;enable-background:new    ;" width="719" height="1276" id="HfrTFF-2" xlink:href="BEB61EBACB4B30DF.png"  transform="matrix(0.3729 0 0 0.3729 1939.2998 458.1211)">
	</image>
</g>
<g id="_4Cu0YN">
	
		<image style="overflow:visible;enable-background:new    ;" width="1582" height="1036" id="_4Cu0YN-2" xlink:href="BEB61EBACB4B30DA.png"  transform="matrix(0.494 0 0 0.494 1664.7706 1040.4524)">
	</image>
</g>
<g id="E7hix5">
	
		<image style="overflow:visible;enable-background:new    ;" width="995" height="699" id="E7hix5-2" xlink:href="BEB61EBACB4B30C5.png"  transform="matrix(0.7818 0 0 0.7818 1665.4343 1655.7335)">
	</image>
</g>
<g id="Pm1vS7">
	
		<image style="overflow:visible;enable-background:new    ;" width="1129" height="1027" xlink:href="BEB61EBACB4B30C6.png"  transform="matrix(0.671 0 0 0.671 1652.6097 2302.8298)">
	</image>
</g>
<g id="GVhSFb">
	
		<image style="overflow:visible;enable-background:new    ;" width="1082" height="926" xlink:href="BEB61EBACB4B30C7.png"  transform="matrix(0.7312 0 0 0.7312 1657.3397 3780.282)">
	</image>
</g>
<g id="neNhsk">
	
		<image style="overflow:visible;enable-background:new    ;" width="971" height="677" xlink:href="BEB61EBACB4B30C9.png"  transform="matrix(0.8154 0 0 0.8154 1655.3314 3123.3604)">
	</image>
</g>
<g id="QHvAdS">
	
		<image style="overflow:visible;enable-background:new    ;" width="1090" height="675" id="QHvAdS-2" xlink:href="BEB61EBACB4B30CB.png"  transform="matrix(0.756 0 0 0.75 1643.8617 4575.877)">
	</image>
</g>
<g id="Ciwt5o.tif">
	
		<image style="overflow:visible;enable-background:new    ;" width="1281" height="1519" id="Layer_0-6" xlink:href="BEB61EBACB4B30CE.png"  transform="matrix(0.6138 0 0 0.6138 601.2788 5397.3711)">
	</image>
</g>
<g id="_4dA5IE.tif">
	
		<image style="overflow:visible;enable-background:new    ;" width="1245" height="1353" id="Layer_0-7" xlink:href="BEB61EBACB4B30E2.png"  transform="matrix(0.6343 0 0 0.6343 606.2233 6468.7998)">
	</image>
</g>
<g id="aXYHrc_00000157288208843947030810000014268322042740066459_">
	
		<image style="overflow:visible;" width="1280" height="861" id="aXYHrc_00000036252909855563992300000015420726409148735896_" xlink:href="BEB61EBACB4B30E2.jpg"  transform="matrix(0.6658 0 0 0.676 597.3416 3330.0686)">
	</image>
</g>
</svg>
