<svg width="1278" height="744" viewBox="0 0 1278 744" fill="none" xmlns="http://www.w3.org/2000/svg">
<rect width="1278" height="744" fill="#1B1C1E"/>
<path d="M553.125 418.288C553.125 413.938 553.934 410.118 555.553 406.83C557.222 403.542 559.473 401.012 562.306 399.242C565.139 397.471 568.301 396.586 571.792 396.586C574.776 396.586 577.382 397.193 579.608 398.407C581.884 399.621 583.629 401.215 584.843 403.188V397.193H597.819V439.535H584.843V433.54C583.579 435.513 581.808 437.107 579.532 438.321C577.306 439.535 574.7 440.142 571.716 440.142C568.276 440.142 565.139 439.257 562.306 437.486C559.473 435.665 557.222 433.11 555.553 429.822C553.934 426.483 553.125 422.639 553.125 418.288ZM584.843 418.364C584.843 415.126 583.933 412.572 582.112 410.7C580.341 408.828 578.166 407.892 575.586 407.892C573.006 407.892 570.805 408.828 568.984 410.7C567.213 412.521 566.328 415.051 566.328 418.288C566.328 421.526 567.213 424.106 568.984 426.028C570.805 427.9 573.006 428.836 575.586 428.836C578.166 428.836 580.341 427.9 582.112 426.028C583.933 424.156 584.843 421.602 584.843 418.364ZM620.182 404.25C621.7 401.923 623.597 400.102 625.874 398.787C628.15 397.421 630.679 396.738 633.462 396.738V410.472H629.895C626.658 410.472 624.229 411.181 622.611 412.597C620.992 413.963 620.182 416.391 620.182 419.882V439.535H607.207V397.193H620.182V404.25ZM663.263 428.532V439.535H656.662C651.957 439.535 648.289 438.397 645.659 436.12C643.028 433.793 641.713 430.025 641.713 424.814V407.968H636.553V397.193H641.713V386.873H654.689V397.193H663.187V407.968H654.689V424.966C654.689 426.231 654.992 427.141 655.599 427.698C656.206 428.254 657.218 428.532 658.634 428.532H663.263Z" fill="#E6E4E0"/>
<path d="M841.739 114H326V629.739H841.739V114Z" stroke="#E6E4E0" stroke-width="0.5" stroke-miterlimit="10"/>
<path d="M326 543.783H841.739" stroke="#E6E4E0" stroke-width="0.5" stroke-miterlimit="10"/>
<path d="M326 457.827H841.739" stroke="#E6E4E0" stroke-width="0.5" stroke-miterlimit="10"/>
<path d="M326 371.87H841.739" stroke="#E6E4E0" stroke-width="0.5" stroke-miterlimit="10"/>
<path d="M326 285.914H841.739" stroke="#E6E4E0" stroke-width="0.5" stroke-miterlimit="10"/>
<path d="M326 199.957H841.739" stroke="#E6E4E0" stroke-width="0.5" stroke-miterlimit="10"/>
<path d="M755.783 114V629.739" stroke="#E6E4E0" stroke-width="0.5" stroke-miterlimit="10"/>
<path d="M669.826 114V629.739" stroke="#E6E4E0" stroke-width="0.5" stroke-miterlimit="10"/>
<path d="M583.87 114V629.739" stroke="#E6E4E0" stroke-width="0.5" stroke-miterlimit="10"/>
<path d="M497.913 114V629.739" stroke="#E6E4E0" stroke-width="0.5" stroke-miterlimit="10"/>
<path d="M411.957 114V629.739" stroke="#E6E4E0" stroke-width="0.5" stroke-miterlimit="10"/>
<path d="M573.765 322.108H565.038V358H558.133V322.108H552.745V316.417H558.133V313.457C558.133 308.803 559.322 305.414 561.699 303.289C564.128 301.114 567.998 300.026 573.309 300.026V305.793C570.274 305.793 568.124 306.4 566.859 307.614C565.645 308.778 565.038 310.726 565.038 313.457V316.417H573.765V322.108ZM618.694 316.417V358H611.789V351.854C610.474 353.978 608.627 355.648 606.25 356.862C603.923 358.025 601.343 358.607 598.51 358.607C595.272 358.607 592.363 357.949 589.783 356.634C587.203 355.268 585.155 353.245 583.637 350.564C582.17 347.882 581.436 344.619 581.436 340.775V316.417H588.266V339.864C588.266 343.962 589.303 347.124 591.377 349.349C593.451 351.525 596.284 352.612 599.876 352.612C603.569 352.612 606.477 351.474 608.602 349.198C610.727 346.921 611.789 343.608 611.789 339.257V316.417H618.694ZM638.777 322.108V346.618C638.777 348.641 639.207 350.083 640.067 350.943C640.926 351.752 642.419 352.157 644.544 352.157H649.628V358H643.405C639.561 358 636.677 357.115 634.755 355.344C632.832 353.574 631.871 350.665 631.871 346.618V322.108H626.484V316.417H631.871V305.945H638.777V316.417H649.628V322.108H638.777ZM694.873 316.417V358H687.968V351.854C686.652 353.978 684.806 355.648 682.428 356.862C680.101 358.025 677.521 358.607 674.688 358.607C671.451 358.607 668.542 357.949 665.962 356.634C663.382 355.268 661.333 353.245 659.815 350.564C658.348 347.882 657.615 344.619 657.615 340.775V316.417H664.444V339.864C664.444 343.962 665.481 347.124 667.555 349.349C669.629 351.525 672.462 352.612 676.054 352.612C679.747 352.612 682.656 351.474 684.781 349.198C686.905 346.921 687.968 343.608 687.968 339.257V316.417H694.873ZM713.437 323.17C714.651 320.793 716.371 318.946 718.597 317.631C720.874 316.315 723.631 315.658 726.868 315.658V322.791H725.047C717.307 322.791 713.437 326.99 713.437 335.387V358H706.532V316.417H713.437V323.17ZM738.406 309.663C737.091 309.663 735.978 309.208 735.067 308.297C734.157 307.387 733.701 306.274 733.701 304.958C733.701 303.643 734.157 302.53 735.067 301.62C735.978 300.709 737.091 300.254 738.406 300.254C739.671 300.254 740.733 300.709 741.593 301.62C742.504 302.53 742.959 303.643 742.959 304.958C742.959 306.274 742.504 307.387 741.593 308.297C740.733 309.208 739.671 309.663 738.406 309.663ZM741.745 316.417V358H734.84V316.417H741.745ZM773.774 315.658C778.833 315.658 782.931 317.201 786.067 320.287C789.203 323.322 790.772 327.723 790.772 333.49V358H783.942V334.477C783.942 330.328 782.905 327.167 780.831 324.991C778.757 322.765 775.924 321.653 772.332 321.653C768.69 321.653 765.781 322.791 763.606 325.067C761.481 327.344 760.419 330.657 760.419 335.008V358H753.514V316.417H760.419V322.335C761.785 320.211 763.631 318.567 765.958 317.403C768.336 316.24 770.941 315.658 773.774 315.658ZM819.201 315.734C822.793 315.734 825.929 316.518 828.61 318.086C831.342 319.654 833.365 321.627 834.681 324.005V316.417H841.662V358.911C841.662 362.705 840.852 366.069 839.234 369.003C837.615 371.988 835.288 374.315 832.252 375.984C829.268 377.653 825.777 378.488 821.781 378.488C816.317 378.488 811.764 377.198 808.122 374.618C804.48 372.038 802.33 368.522 801.672 364.071H808.501C809.26 366.6 810.828 368.623 813.206 370.141C815.584 371.709 818.442 372.493 821.781 372.493C825.575 372.493 828.661 371.305 831.038 368.927C833.467 366.549 834.681 363.211 834.681 358.911V350.184C833.315 352.612 831.291 354.636 828.61 356.255C825.929 357.874 822.793 358.683 819.201 358.683C815.508 358.683 812.144 357.772 809.108 355.951C806.124 354.13 803.771 351.575 802.051 348.287C800.331 344.999 799.471 341.255 799.471 337.057C799.471 332.807 800.331 329.089 802.051 325.902C803.771 322.664 806.124 320.16 809.108 318.39C812.144 316.619 815.508 315.734 819.201 315.734ZM834.681 337.132C834.681 333.996 834.048 331.264 832.784 328.937C831.519 326.61 829.799 324.84 827.624 323.625C825.499 322.361 823.147 321.728 820.567 321.728C817.987 321.728 815.634 322.335 813.51 323.55C811.385 324.764 809.69 326.534 808.426 328.861C807.161 331.188 806.528 333.92 806.528 337.057C806.528 340.244 807.161 343.026 808.426 345.404C809.69 347.731 811.385 349.527 813.51 350.791C815.634 352.005 817.987 352.612 820.567 352.612C823.147 352.612 825.499 352.005 827.624 350.791C829.799 349.527 831.519 347.731 832.784 345.404C834.048 343.026 834.681 340.269 834.681 337.132Z" fill="#E6E4E0"/>
<path d="M743.619 418.146C743.619 419.36 743.543 420.625 743.391 421.94H714.025C714.227 424.571 715.062 426.594 716.529 428.011C718.046 429.377 719.893 430.059 722.068 430.059C725.306 430.059 727.557 428.694 728.822 425.962H742.632C741.924 428.744 740.634 431.248 738.762 433.474C736.941 435.7 734.639 437.445 731.857 438.71C729.075 439.975 725.963 440.607 722.523 440.607C718.375 440.607 714.682 439.722 711.445 437.951C708.207 436.181 705.678 433.651 703.856 430.363C702.035 427.075 701.125 423.23 701.125 418.829C701.125 414.428 702.01 410.583 703.781 407.295C705.602 404.007 708.131 401.477 711.369 399.707C714.606 397.936 718.325 397.051 722.523 397.051C726.621 397.051 730.263 397.911 733.45 399.631C736.637 401.351 739.116 403.804 740.887 406.991C742.708 410.178 743.619 413.897 743.619 418.146ZM730.339 414.731C730.339 412.505 729.58 410.735 728.063 409.42C726.545 408.104 724.648 407.447 722.372 407.447C720.196 407.447 718.35 408.079 716.832 409.344C715.365 410.608 714.455 412.404 714.101 414.731H730.339ZM747.884 418.753C747.884 414.402 748.693 410.583 750.312 407.295C751.982 404.007 754.233 401.477 757.066 399.707C759.899 397.936 763.06 397.051 766.551 397.051C769.333 397.051 771.863 397.633 774.139 398.796C776.466 399.96 778.287 401.528 779.603 403.501V383.847H792.579V440H779.603V433.929C778.389 435.953 776.643 437.572 774.367 438.786C772.141 440 769.536 440.607 766.551 440.607C763.06 440.607 759.899 439.722 757.066 437.951C754.233 436.13 751.982 433.575 750.312 430.287C748.693 426.948 747.884 423.104 747.884 418.753ZM779.603 418.829C779.603 415.591 778.692 413.037 776.871 411.165C775.1 409.293 772.925 408.357 770.345 408.357C767.765 408.357 765.565 409.293 763.743 411.165C761.973 412.986 761.087 415.515 761.087 418.753C761.087 421.991 761.973 424.571 763.743 426.493C765.565 428.365 767.765 429.301 770.345 429.301C772.925 429.301 775.1 428.365 776.871 426.493C778.692 424.621 779.603 422.067 779.603 418.829ZM843.777 397.658V440H830.801V434.233C829.486 436.105 827.69 437.622 825.413 438.786C823.188 439.899 820.709 440.455 817.977 440.455C814.739 440.455 811.881 439.747 809.402 438.331C806.924 436.864 805.001 434.764 803.635 432.032C802.269 429.301 801.587 426.088 801.587 422.395V397.658H814.486V420.65C814.486 423.483 815.22 425.684 816.687 427.252C818.154 428.82 820.127 429.604 822.606 429.604C825.135 429.604 827.133 428.82 828.601 427.252C830.068 425.684 830.801 423.483 830.801 420.65V397.658H843.777ZM850.517 418.829C850.517 414.428 851.403 410.583 853.173 407.295C854.994 404.007 857.499 401.477 860.686 399.707C863.923 397.936 867.616 397.051 871.764 397.051C877.076 397.051 881.503 398.442 885.044 401.224C888.635 404.007 890.988 407.927 892.101 412.986H878.29C877.127 409.748 874.876 408.13 871.537 408.13C869.159 408.13 867.262 409.065 865.846 410.937C864.429 412.758 863.721 415.389 863.721 418.829C863.721 422.269 864.429 424.925 865.846 426.797C867.262 428.618 869.159 429.528 871.537 429.528C874.876 429.528 877.127 427.909 878.29 424.672H892.101C890.988 429.629 888.635 433.525 885.044 436.358C881.452 439.191 877.026 440.607 871.764 440.607C867.616 440.607 863.923 439.722 860.686 437.951C857.499 436.181 854.994 433.651 853.173 430.363C851.403 427.075 850.517 423.23 850.517 418.829ZM896.462 418.753C896.462 414.402 897.271 410.583 898.89 407.295C900.559 404.007 902.81 401.477 905.643 399.707C908.476 397.936 911.638 397.051 915.129 397.051C918.113 397.051 920.719 397.658 922.944 398.872C925.221 400.086 926.966 401.68 928.18 403.653V397.658H941.156V440H928.18V434.005C926.916 435.978 925.145 437.572 922.869 438.786C920.643 440 918.037 440.607 915.053 440.607C911.613 440.607 908.476 439.722 905.643 437.951C902.81 436.13 900.559 433.575 898.89 430.287C897.271 426.948 896.462 423.104 896.462 418.753ZM928.18 418.829C928.18 415.591 927.27 413.037 925.449 411.165C923.678 409.293 921.503 408.357 918.923 408.357C916.343 408.357 914.142 409.293 912.321 411.165C910.55 412.986 909.665 415.515 909.665 418.753C909.665 421.991 910.55 424.571 912.321 426.493C914.142 428.365 916.343 429.301 918.923 429.301C921.503 429.301 923.678 428.365 925.449 426.493C927.27 424.621 928.18 422.067 928.18 418.829ZM974.143 428.997V440H967.541C962.836 440 959.169 438.862 956.538 436.585C953.908 434.258 952.592 430.489 952.592 425.279V408.433H947.432V397.658H952.592V387.338H965.568V397.658H974.067V408.433H965.568V425.431C965.568 426.695 965.872 427.606 966.479 428.162C967.086 428.719 968.098 428.997 969.514 428.997H974.143ZM987.896 393.257C985.62 393.257 983.748 392.599 982.281 391.284C980.865 389.918 980.156 388.248 980.156 386.276C980.156 384.252 980.865 382.583 982.281 381.267C983.748 379.901 985.62 379.219 987.896 379.219C990.122 379.219 991.943 379.901 993.36 381.267C994.827 382.583 995.561 384.252 995.561 386.276C995.561 388.248 994.827 389.918 993.36 391.284C991.943 392.599 990.122 393.257 987.896 393.257ZM994.346 397.658V440H981.371V397.658H994.346ZM1023.02 440.607C1018.88 440.607 1015.13 439.722 1011.79 437.951C1008.51 436.181 1005.9 433.651 1003.98 430.363C1002.11 427.075 1001.17 423.23 1001.17 418.829C1001.17 414.478 1002.13 410.659 1004.05 407.371C1005.98 404.032 1008.61 401.477 1011.95 399.707C1015.28 397.936 1019.03 397.051 1023.18 397.051C1027.32 397.051 1031.07 397.936 1034.41 399.707C1037.74 401.477 1040.38 404.032 1042.3 407.371C1044.22 410.659 1045.18 414.478 1045.18 418.829C1045.18 423.179 1044.19 427.024 1042.22 430.363C1040.3 433.651 1037.64 436.181 1034.25 437.951C1030.92 439.722 1027.17 440.607 1023.02 440.607ZM1023.02 429.377C1025.5 429.377 1027.6 428.466 1029.32 426.645C1031.09 424.824 1031.98 422.218 1031.98 418.829C1031.98 415.44 1031.12 412.834 1029.4 411.013C1027.73 409.192 1025.65 408.281 1023.18 408.281C1020.65 408.281 1018.55 409.192 1016.88 411.013C1015.21 412.784 1014.37 415.389 1014.37 418.829C1014.37 422.218 1015.18 424.824 1016.8 426.645C1018.47 428.466 1020.55 429.377 1023.02 429.377ZM1077.87 397.203C1082.82 397.203 1086.77 398.821 1089.7 402.059C1092.69 405.246 1094.18 409.647 1094.18 415.262V440H1081.28V417.008C1081.28 414.175 1080.55 411.974 1079.08 410.406C1077.61 408.838 1075.64 408.054 1073.16 408.054C1070.68 408.054 1068.71 408.838 1067.24 410.406C1065.77 411.974 1065.04 414.175 1065.04 417.008V440H1052.07V397.658H1065.04V403.273C1066.36 401.401 1068.13 399.934 1070.35 398.872C1072.58 397.759 1075.08 397.203 1077.87 397.203Z" fill="#E6E4E0"/>
</svg>
