<?xml version="1.0" encoding="UTF-8"?>
<svg id="Layer_2" data-name="Layer 2" xmlns="http://www.w3.org/2000/svg" viewBox="0 0 78.29 78.3">
  <defs>
    <style>
      .cls-1 {
        fill: #e6e4e0;
      }
    </style>
  </defs>
  <g id="Layer_1-2" data-name="Layer 1">
    <path class="cls-1" d="M59.87,13.99c-2.53,0-4.59,2.06-4.59,4.59s2.05,4.59,4.59,4.59,4.59-2.05,4.59-4.59h0c0-2.53-2.06-4.58-4.59-4.59Z"/>
    <path class="cls-1" d="M39.46,19.88c-10.65,0-19.28,8.64-19.27,19.29s8.64,19.28,19.29,19.27c10.64,0,19.27-8.64,19.27-19.28-.01-10.65-8.64-19.27-19.29-19.28Zm0,31.63c-6.82,0-12.35-5.53-12.35-12.35s5.53-12.35,12.35-12.35,12.35,5.53,12.35,12.35-5.53,12.35-12.35,12.36h0Z"/>
    <path class="cls-1" d="M54.77,78.3H23.51c-12.98-.02-23.49-10.53-23.51-23.51V23.52C.01,10.54,10.53,.02,23.51,0h31.26c12.98,.02,23.5,10.54,23.52,23.52v31.26c-.01,12.99-10.53,23.51-23.52,23.52ZM23.51,7.38c-8.91,.01-16.13,7.23-16.15,16.14v31.26c.01,8.91,7.24,16.14,16.15,16.15h31.26c8.91-.01,16.14-7.24,16.15-16.15V23.52c0-8.92-7.23-16.14-16.15-16.15H23.51Z"/>
  </g>
</svg>