<svg width="379" height="333" viewBox="0 0 379 333" fill="none" xmlns="http://www.w3.org/2000/svg">
<path d="M309.313 0.632324H171.945C212.261 59.2163 299.908 205.424 299.908 262.206C299.908 291.325 287.671 304.878 265.235 304.878C204.86 304.878 111.466 176.27 86.1582 71.5693H11.8302C4.01707 93.7845 0.0446578 117.168 0.0832868 140.717C0.0832868 251.163 84.2163 332.991 195.373 332.991C312.14 332.991 378.938 242.127 378.938 143.73C378.943 81.2993 328.687 20.5063 309.313 0.632324ZM17.3673 142.682C17.4347 141.265 17.7894 139.877 18.4099 138.601C19.0304 137.326 19.9037 136.189 20.9768 135.262C22.0499 134.334 23.3004 133.634 24.6523 133.204C26.0043 132.775 27.4295 132.624 28.8413 132.762C34.3153 133.162 39.1013 137.241 38.6413 143.609C38.5733 145.025 38.2179 146.412 37.5969 147.686C36.9759 148.959 36.1021 150.093 35.0288 151.019C33.9556 151.944 32.7052 152.642 31.3538 153.068C30.0024 153.495 28.5784 153.642 27.1682 153.501C21.6922 153.106 16.9023 149.079 17.3673 142.682ZM18.4593 173.634C17.5593 167.116 20.0502 164.234 25.9862 163.413L36.2793 161.997L37.4103 159.326L38.9292 170.368L37.1183 168.101L26.4372 169.57C20.7492 170.351 19.1373 172.185 19.5373 175.098C19.9683 178.234 22.4253 179.451 27.7733 178.459L38.2733 176.535L39.2903 173.035L40.3733 180.913L38.5633 178.646L27.0373 179.723C21.2093 180.267 19.1423 178.606 18.4593 173.634ZM27.9173 207.109L24.1443 196.565L24.5653 196.415L25.4143 198.787L43.5243 192.306C42.3953 190.063 39.4413 188.624 34.1993 188.268L34.1903 188.242L41.6242 185.581L48.4073 204.534L40.9723 207.195L40.9632 207.168C44.7892 203.568 46.1633 200.581 45.6003 198.105L27.4903 204.585L28.3393 206.957L27.9173 207.109ZM45.0672 238.452L44.6833 238.679L40.5932 231.829L45.7853 222.499L38.2353 227.005L39.4552 229.049L39.0713 229.28L33.5453 220.023L33.9303 219.792L35.0783 221.715L50.7072 212.387L50.7273 209.473L56.1383 218.537C58.9663 223.274 59.1692 226.837 56.2832 228.559C53.9032 229.98 51.5902 229.437 49.4242 227.338L44.3783 237.296L45.0672 238.452ZM60.9372 258.352L49.7423 245.306L50.0822 245.015L51.5412 246.715L65.3562 234.865L64.8813 231.988L76.2403 245.226L70.9273 249.785L70.9093 249.763C72.8503 244.629 72.3093 241.37 70.1753 238.844L63.3753 244.679C64.5873 245.963 66.9902 246.485 69.2803 245.885L69.2983 245.906L63.3692 250.994L63.3503 250.972C64.3153 248.743 64.1992 246.372 63.0772 244.934L55.5533 251.389C57.7473 253.861 60.8213 254.95 66.2343 253.775L66.2522 253.795L60.9372 258.352ZM83.6833 278.963L83.3833 279.299L75.6493 272.492L75.9493 272.155L77.6723 273.672L79.4912 268.259L74.6573 264.004L69.8963 266.827L72.0613 268.732L71.7613 269.069L67.1173 264.98L67.4173 264.644L68.2782 265.403L88.3553 256.07L89.4483 257.032L82.7163 278.112L83.6833 278.963ZM106.73 283.506C107.52 274.199 106.613 271.421 104.93 270.37C103.885 269.717 102.573 270.021 101.388 271.922C97.6093 277.981 99.4533 286.028 104.514 289.184C105.165 289.617 105.891 289.924 106.655 290.09L106.663 290.129C105.269 290.798 103.726 291.093 102.184 290.988C100.642 290.883 99.1535 290.381 97.8633 289.529C92.3993 286.12 91.3023 279.892 94.7983 274.285C97.9843 269.176 103.498 267.962 108.698 271.207C110.881 272.522 112.708 274.353 114.018 276.538L106.756 283.525L106.73 283.506ZM139.479 287.469L133.096 304.546L135.196 305.332L135.039 305.752L125.071 302.025L125.227 301.605L127.327 302.39L130.827 293.025L124.636 290.711L121.136 300.076L123.236 300.86L123.079 301.28L113.11 297.553L113.267 297.134L115.367 297.919L121.751 280.84L119.936 278.577L130.377 282.477L127.522 282.994L124.816 290.234L131.007 292.548L133.713 285.308L131.898 283.044L142.339 286.944L139.479 287.469Z" fill="#E6E4E0"/>
</svg>
