<svg width="255" height="371" viewBox="0 0 255 371" fill="none" xmlns="http://www.w3.org/2000/svg">
<path d="M254.187 355.933C241.087 360.678 229.958 362.457 215.552 362.457C167.093 362.457 149.413 336.951 149.413 268.146V129.946H241.746V120.457H149.413V0.0419922L3.97871 126.888L0.636719 129.942H36.5867C54.0817 129.942 68.2407 142.83 68.1547 158.677L67.3957 299.247C67.3957 328.495 69.1467 352.682 84.7777 370.447H243.697C247.726 366.068 251.45 361.418 254.842 356.529L254.187 355.933ZM132.74 294.579H132.291V292.059H113.056C113.364 294.551 115.656 296.903 120.476 299.003V299.031H112.576V278.899H120.476V278.927C115.66 281.027 113.364 283.379 113.056 285.899H132.291V283.379H132.74V294.579ZM132.74 259.016H132.291V256.776H122.296V263.384H132.291V261.144H132.74V271.785H132.291V269.544H114.064L112.58 272.037V260.892L114.064 263.384H121.792V256.776H114.064L112.58 259.268V248.124L114.064 250.617H132.291V248.376H132.74V259.016ZM132.74 241.14H132.291V238.9H114.091L112.579 241.392V223.948H119.579V223.976C114.763 226.608 113.055 229.436 113.027 232.74H121.987C121.903 230.976 120.419 229.016 118.287 227.98V227.952H126.099V227.98C123.915 229.043 122.459 230.919 122.375 232.74H132.286C132.231 229.44 130.607 226.608 125.735 223.976V223.948H132.735L132.74 241.14Z" fill="#E6E4E0"/>
</svg>
