<svg width="214" height="364" viewBox="0 0 214 364" fill="none" xmlns="http://www.w3.org/2000/svg">
<path d="M165.28 0.860352H144.48L13.4178 349.406H0.881836V363.669H114.736V336.79L89.2808 336.528C63.1868 336.064 45.3378 308.371 57.0988 271.028L76.4388 215.256H164.48L196.08 290.456H163.28V296.856H213.103V110.084L165.28 0.860352ZM145.842 121.238L146.25 122.312L168.36 123.437L168.877 124.798L153.077 140.292L153.535 141.497L153.116 141.656L149.457 132.024L149.876 131.865L150.691 134.01L154.827 130.074L152.54 124.053L147.013 124.327L148.037 127.027L147.619 127.186L145.419 121.401L145.842 121.238ZM78.7298 208.056L121.483 93.3904L161.28 208.056H78.7298ZM163.53 167.813L163.111 167.972L160.277 160.513L167.016 152.234L158.798 155.355L159.643 157.58L159.224 157.739L155.397 147.663L155.815 147.503L156.615 149.597L173.627 143.135L174.156 140.269L177.903 150.137C179.862 155.292 179.44 158.837 176.303 160.03C173.712 161.014 171.529 160.075 169.762 157.63L163.062 166.557L163.53 167.813ZM183.359 186.756L183.349 186.731C187.105 183.058 188.416 180.044 187.809 177.58L169.83 184.406L170.724 186.761L170.305 186.92L166.33 176.455L166.749 176.294L167.649 178.651L185.629 171.822C184.457 169.601 181.476 168.222 176.229 167.964L176.22 167.939L183.6 165.139L190.748 183.959L183.359 186.756Z" fill="#E6E4E0"/>
</svg>
