<svg width="200" height="233" viewBox="0 0 200 233" fill="none" xmlns="http://www.w3.org/2000/svg">
<path d="M144.444 31.756C121.173 20.682 108.669 10.966 102.628 0.311035H16.357C11.739 10.9411 9.40176 22.4215 9.49603 34.011C9.49603 76.811 34.371 103.287 85.987 128.069L127.032 147.781C153.151 160.173 164.345 169.747 164.345 186.644C164.345 209.737 145.688 222.69 118.325 222.69C110.863 222.69 106.509 222.127 97.804 219.874L20.689 126.38H20.0681L0.789062 218.18C44.3211 230.007 85.3651 232.823 114.589 232.823C146.121 232.823 175.736 226.684 199.674 215.38V58.714C196.905 57.204 194.04 55.7277 191.081 54.285L144.444 31.756ZM43.444 60.129C39.686 61.029 36.206 58.521 35.118 53.973C34.552 51.6347 34.3633 49.2209 34.559 46.823L41.9151 46.761L41.9221 46.789L35.6921 52.281C35.6009 52.7733 35.6238 53.28 35.7591 53.762C35.8261 54.1911 35.98 54.602 36.2115 54.9695C36.4429 55.3371 36.747 55.6534 37.105 55.8993C37.4631 56.1452 37.8675 56.3153 38.2936 56.3994C38.7197 56.4834 39.1585 56.4795 39.5831 56.388C40.2848 56.1943 40.9152 55.8012 41.3981 55.2565C41.8811 54.7118 42.1957 54.0389 42.304 53.319L43.2491 49.81C44.0321 46.945 45.5251 45.004 48.2761 44.346C51.6761 43.532 54.948 45.398 56.011 49.836C56.5572 51.9491 56.6529 54.1535 56.2921 56.306L49.892 56.138L49.886 56.113L55.48 50.973C55.497 50.5097 55.4441 50.0465 55.3231 49.599C55.2545 49.2601 55.1182 48.9384 54.9224 48.6534C54.7266 48.3684 54.4752 48.1259 54.1834 47.9404C53.8916 47.7548 53.5653 47.6302 53.2242 47.5737C52.883 47.5173 52.5341 47.5303 52.1981 47.612C50.9981 47.898 50.098 48.833 49.386 51.135L48.086 55.217C47.269 57.832 45.9211 59.536 43.4431 60.129H43.444ZM64.226 83.114C59.988 86.602 53.744 86.992 49.669 82.042C48.7403 80.9699 48.0392 79.7203 47.6083 78.369C47.1774 77.0176 47.0258 75.5927 47.1625 74.1809C47.2993 72.7691 47.7215 71.3999 48.4037 70.1564C49.086 68.9128 50.0138 67.8209 51.131 66.947C55.367 63.457 61.647 63.111 65.705 68.04C66.6321 69.1115 67.3314 70.3604 67.7606 71.7108C68.1897 73.0611 68.3396 74.4846 68.2011 75.8947C68.0627 77.3048 67.6388 78.6721 66.9553 79.9131C66.2717 81.1542 65.3428 82.2433 64.225 83.114H64.226ZM82.92 97.026L82.897 97.01C83.879 87.719 83.0281 84.924 81.3631 83.836C80.3311 83.164 79.014 83.436 77.789 85.317C73.889 91.296 75.564 99.381 80.559 102.642C81.2012 103.088 81.9209 103.41 82.6811 103.592L82.689 103.63C81.2817 104.269 79.7328 104.533 78.1933 104.395C76.6537 104.258 75.1759 103.724 73.904 102.846C68.51 99.325 67.541 93.074 71.153 87.54C74.445 82.498 79.98 81.395 85.116 84.748C87.2711 86.1088 89.0599 87.977 90.326 90.189L82.92 97.026ZM98.137 114.582L97.9421 114.982L88.352 110.368L88.5461 109.968L90.565 110.94L98.4571 94.54L96.866 92.097L106.91 96.928L104.01 97.212L96.118 113.612L98.137 114.582ZM125.684 113.329L125.659 113.318C125.314 107.841 123.477 105.096 120.496 103.671L116.696 111.787C118.329 112.457 120.733 111.943 122.573 110.455L122.598 110.467L119.289 117.541L119.263 117.531C119.225 115.102 118.142 112.989 116.53 112.141L112.33 121.118C115.346 122.466 118.595 122.194 123.043 118.897L123.068 118.909L120.103 125.249L104.532 117.967L104.722 117.56L106.751 118.51L114.459 102.026L112.843 99.601L128.643 106.99L125.684 113.329ZM150.684 126.947C151.073 121.707 150.064 118.578 147.984 117.129L139.006 134.144L141.235 135.32L141.026 135.72L131.119 130.493L131.328 130.093L133.558 131.269L142.535 114.254C140.187 113.363 137.035 114.296 132.929 117.577L132.904 117.563L136.59 110.579L154.398 119.974L150.712 126.958L150.684 126.947ZM176.548 143.258L164.792 145.658L158.916 150.327L160.31 152.081L159.959 152.359L153.34 144.028L153.691 143.749L155.084 145.501L159.684 141.844L165.518 129.378L165.326 126.706L172.449 135.673L169.715 134.663L164.825 145.163L175.025 141.35L174.31 138.019L179.275 144.268L176.548 143.258Z" fill="#E6E4E0"/>
</svg>
