<svg width="978" height="636" viewBox="0 0 978 636" fill="none" xmlns="http://www.w3.org/2000/svg">
<path d="M254.187 355.933C241.087 360.678 229.958 362.457 215.552 362.457C167.093 362.457 149.413 336.951 149.413 268.146V129.946H241.746V120.457H149.413V0.0419922L3.97871 126.888L0.636719 129.942H36.5867C54.0817 129.942 68.2407 142.83 68.1547 158.677L67.3957 299.247C67.3957 328.495 69.1467 352.682 84.7777 370.447H243.697C247.726 366.068 251.45 361.418 254.842 356.529L254.187 355.933ZM132.74 294.579H132.291V292.059H113.056C113.364 294.551 115.656 296.903 120.476 299.003V299.031H112.576V278.899H120.476V278.927C115.66 281.027 113.364 283.379 113.056 285.899H132.291V283.379H132.74V294.579ZM132.74 259.016H132.291V256.776H122.296V263.384H132.291V261.144H132.74V271.785H132.291V269.544H114.064L112.58 272.037V260.892L114.064 263.384H121.792V256.776H114.064L112.58 259.268V248.124L114.064 250.617H132.291V248.376H132.74V259.016ZM132.74 241.14H132.291V238.9H114.091L112.579 241.392V223.948H119.579V223.976C114.763 226.608 113.055 229.436 113.027 232.74H121.987C121.903 230.976 120.419 229.016 118.287 227.98V227.952H126.099V227.98C123.915 229.043 122.459 230.919 122.375 232.74H132.286C132.231 229.44 130.607 226.608 125.735 223.976V223.948H132.735L132.74 241.14Z" fill="#E6E4E0"/>
<path d="M922.444 403.756C899.173 392.682 886.669 382.966 880.628 372.311H794.357C789.739 382.941 787.402 394.422 787.496 406.011C787.496 448.811 812.371 475.287 863.987 500.069L905.032 519.781C931.151 532.173 942.345 541.747 942.345 558.644C942.345 581.737 923.688 594.69 896.325 594.69C888.863 594.69 884.509 594.127 875.804 591.874L798.689 498.38H798.068L778.789 590.18C822.321 602.007 863.365 604.823 892.589 604.823C924.121 604.823 953.736 598.684 977.674 587.38V430.714C974.905 429.204 972.04 427.728 969.081 426.285L922.444 403.756ZM821.444 432.129C817.686 433.029 814.206 430.521 813.118 425.973C812.552 423.635 812.363 421.221 812.559 418.823L819.915 418.761L819.922 418.789L813.692 424.281C813.601 424.773 813.624 425.28 813.759 425.762C813.826 426.191 813.98 426.602 814.211 426.97C814.443 427.337 814.747 427.653 815.105 427.899C815.463 428.145 815.868 428.315 816.294 428.399C816.72 428.483 817.159 428.48 817.583 428.388C818.285 428.194 818.915 427.801 819.398 427.257C819.881 426.712 820.196 426.039 820.304 425.319L821.249 421.81C822.032 418.945 823.525 417.004 826.276 416.346C829.676 415.532 832.948 417.398 834.011 421.836C834.557 423.949 834.653 426.154 834.292 428.306L827.892 428.138L827.886 428.113L833.48 422.973C833.497 422.51 833.444 422.047 833.323 421.599C833.255 421.26 833.118 420.938 832.922 420.653C832.727 420.368 832.475 420.126 832.183 419.94C831.892 419.755 831.565 419.63 831.224 419.574C830.883 419.517 830.534 419.53 830.198 419.612C828.998 419.898 828.098 420.833 827.386 423.135L826.086 427.217C825.269 429.832 823.921 431.536 821.443 432.129H821.444ZM842.226 455.114C837.988 458.602 831.744 458.992 827.669 454.042C826.74 452.97 826.039 451.72 825.608 450.369C825.177 449.018 825.026 447.593 825.163 446.181C825.299 444.769 825.722 443.4 826.404 442.156C827.086 440.913 828.014 439.821 829.131 438.947C833.367 435.457 839.647 435.111 843.705 440.04C844.632 441.111 845.331 442.36 845.761 443.711C846.19 445.061 846.34 446.485 846.201 447.895C846.063 449.305 845.639 450.672 844.955 451.913C844.272 453.154 843.343 454.243 842.225 455.114H842.226ZM860.92 469.026L860.897 469.01C861.879 459.719 861.028 456.924 859.363 455.836C858.331 455.164 857.014 455.436 855.789 457.317C851.889 463.296 853.564 471.381 858.559 474.642C859.201 475.088 859.921 475.41 860.681 475.592L860.689 475.63C859.282 476.269 857.733 476.533 856.193 476.395C854.654 476.258 853.176 475.724 851.904 474.846C846.51 471.325 845.541 465.074 849.153 459.54C852.445 454.498 857.98 453.395 863.116 456.748C865.271 458.109 867.06 459.977 868.326 462.189L860.92 469.026ZM876.137 486.582L875.942 486.982L866.352 482.368L866.546 481.968L868.565 482.94L876.457 466.54L874.866 464.097L884.91 468.928L882.01 469.212L874.118 485.612L876.137 486.582ZM903.684 485.329L903.659 485.318C903.314 479.841 901.477 477.096 898.496 475.671L894.696 483.787C896.329 484.457 898.733 483.943 900.573 482.455L900.598 482.467L897.289 489.541L897.263 489.531C897.225 487.102 896.142 484.989 894.53 484.141L890.33 493.118C893.346 494.466 896.595 494.194 901.043 490.897L901.068 490.909L898.103 497.249L882.532 489.967L882.722 489.56L884.751 490.51L892.459 474.026L890.843 471.601L906.643 478.99L903.684 485.329ZM928.684 498.947C929.073 493.707 928.064 490.578 925.984 489.129L917.006 506.144L919.235 507.32L919.026 507.72L909.119 502.493L909.328 502.093L911.558 503.269L920.535 486.254C918.187 485.363 915.035 486.296 910.929 489.577L910.904 489.563L914.59 482.579L932.398 491.974L928.712 498.958L928.684 498.947ZM954.548 515.258L942.792 517.658L936.916 522.327L938.31 524.081L937.959 524.359L931.34 516.028L931.691 515.749L933.084 517.501L937.684 513.844L943.518 501.378L943.326 498.706L950.449 507.673L947.715 506.663L942.825 517.163L953.025 513.35L952.31 510.019L957.275 516.268L954.548 515.258Z" fill="#E6E4E0"/>
<path d="M836.886 438.406C832.619 442.106 829.404 452.799 831.66 455.679C832.379 456.597 833.308 456.634 834.46 455.638C838.729 451.938 842.008 441.328 839.671 438.344C839.015 437.506 837.998 437.444 836.886 438.406Z" fill="#E6E4E0"/>
<path d="M711.313 116.632H573.945C614.261 175.216 701.908 321.424 701.908 378.206C701.908 407.325 689.671 420.878 667.235 420.878C606.86 420.878 513.466 292.27 488.158 187.569H413.83C406.017 209.785 402.045 233.168 402.083 256.717C402.083 367.163 486.216 448.991 597.373 448.991C714.14 448.991 780.938 358.127 780.938 259.73C780.943 197.299 730.687 136.506 711.313 116.632ZM419.367 258.682C419.435 257.265 419.789 255.877 420.41 254.601C421.03 253.326 421.904 252.189 422.977 251.262C424.05 250.334 425.3 249.634 426.652 249.204C428.004 248.775 429.429 248.624 430.841 248.762C436.315 249.162 441.101 253.241 440.641 259.609C440.573 261.025 440.218 262.412 439.597 263.686C438.976 264.959 438.102 266.093 437.029 267.019C435.956 267.944 434.705 268.642 433.354 269.068C432.002 269.495 430.578 269.642 429.168 269.501C423.692 269.106 418.902 265.079 419.367 258.682ZM420.459 289.634C419.559 283.116 422.05 280.234 427.986 279.413L438.279 277.997L439.41 275.326L440.929 286.368L439.118 284.101L428.437 285.57C422.749 286.351 421.137 288.185 421.537 291.098C421.968 294.234 424.425 295.451 429.773 294.459L440.273 292.535L441.29 289.035L442.373 296.913L440.563 294.646L429.037 295.723C423.209 296.267 421.142 294.606 420.459 289.634ZM429.917 323.109L426.144 312.565L426.565 312.415L427.414 314.787L445.524 308.306C444.395 306.063 441.441 304.624 436.199 304.268L436.19 304.242L443.624 301.581L450.407 320.534L442.972 323.195L442.963 323.168C446.789 319.568 448.163 316.581 447.6 314.105L429.49 320.585L430.339 322.957L429.917 323.109ZM447.067 354.452L446.683 354.679L442.593 347.829L447.785 338.499L440.235 343.005L441.455 345.049L441.071 345.28L435.545 336.023L435.93 335.792L437.078 337.715L452.707 328.387L452.727 325.473L458.138 334.537C460.966 339.274 461.169 342.837 458.283 344.559C455.903 345.98 453.59 345.437 451.424 343.338L446.378 353.296L447.067 354.452ZM462.937 374.352L451.742 361.306L452.082 361.015L453.541 362.715L467.356 350.865L466.881 347.988L478.24 361.226L472.927 365.785L472.909 365.763C474.85 360.629 474.309 357.37 472.175 354.844L465.375 360.679C466.587 361.963 468.99 362.485 471.28 361.885L471.298 361.906L465.369 366.994L465.35 366.972C466.315 364.743 466.199 362.372 465.077 360.934L457.553 367.389C459.747 369.861 462.821 370.95 468.234 369.775L468.252 369.795L462.937 374.352ZM485.683 394.963L485.383 395.299L477.649 388.492L477.949 388.155L479.672 389.672L481.491 384.259L476.657 380.004L471.896 382.827L474.061 384.732L473.761 385.069L469.117 380.98L469.417 380.644L470.278 381.403L490.355 372.07L491.448 373.032L484.716 394.112L485.683 394.963ZM508.73 399.506C509.52 390.199 508.613 387.421 506.93 386.37C505.885 385.717 504.573 386.021 503.388 387.922C499.609 393.981 501.453 402.028 506.514 405.184C507.165 405.617 507.891 405.924 508.655 406.09L508.663 406.129C507.269 406.798 505.726 407.093 504.184 406.988C502.642 406.883 501.153 406.381 499.863 405.529C494.399 402.12 493.302 395.892 496.798 390.285C499.984 385.176 505.498 383.962 510.698 387.207C512.881 388.522 514.708 390.353 516.018 392.538L508.756 399.525L508.73 399.506ZM541.479 403.469L535.096 420.546L537.196 421.332L537.039 421.752L527.071 418.025L527.227 417.605L529.327 418.39L532.827 409.025L526.636 406.711L523.136 416.076L525.236 416.86L525.079 417.28L515.11 413.553L515.267 413.134L517.367 413.919L523.751 396.84L521.936 394.577L532.377 398.477L529.522 398.994L526.816 406.234L533.007 408.548L535.713 401.308L533.898 399.044L544.339 402.944L541.479 403.469Z" fill="#E6E4E0"/>
<path d="M454.93 339.058C457.359 337.609 458.352 335.777 457.23 333.9L456.77 333.131L448.235 338.231C450.176 341.084 451.953 340.837 454.93 339.058Z" fill="#E6E4E0"/>
<path d="M481.655 383.735L485.062 375.366L477.095 379.72L481.655 383.735Z" fill="#E6E4E0"/>
<path d="M439.354 255.641C439.435 254.524 438.68 253.71 437.116 253.597C431.111 253.161 420.933 258.768 420.653 262.622C420.564 263.851 421.269 264.577 422.889 264.694C428.894 265.13 439.065 259.635 439.354 255.641Z" fill="#E6E4E0"/>
<path d="M346.28 272.86H325.48L194.418 621.406H181.882V635.669H295.736V608.79L270.281 608.528C244.187 608.064 226.338 580.371 238.099 543.028L257.439 487.256H345.48L377.08 562.456H344.28V568.856H394.103V382.084L346.28 272.86ZM326.842 393.238L327.25 394.312L349.36 395.437L349.877 396.798L334.077 412.292L334.535 413.497L334.116 413.656L330.457 404.024L330.876 403.865L331.691 406.01L335.827 402.074L333.54 396.053L328.013 396.327L329.037 399.027L328.619 399.186L326.419 393.401L326.842 393.238ZM259.73 480.056L302.483 365.39L342.28 480.056H259.73ZM344.53 439.813L344.111 439.972L341.277 432.513L348.016 424.234L339.798 427.355L340.643 429.58L340.224 429.739L336.397 419.663L336.815 419.503L337.615 421.597L354.627 415.135L355.156 412.269L358.903 422.137C360.862 427.292 360.44 430.837 357.303 432.03C354.712 433.014 352.529 432.075 350.762 429.63L344.062 438.557L344.53 439.813ZM364.359 458.756L364.349 458.731C368.105 455.058 369.416 452.044 368.809 449.58L350.83 456.406L351.724 458.761L351.305 458.92L347.33 448.455L347.749 448.294L348.649 450.651L366.629 443.822C365.457 441.601 362.476 440.222 357.229 439.964L357.22 439.939L364.6 437.139L371.748 455.959L364.359 458.756Z" fill="#E6E4E0"/>
<path d="M342.28 396.006H334.063L336.22 401.685L342.28 396.006Z" fill="#E6E4E0"/>
<path d="M354.956 426.03C357.6 425.03 358.897 423.395 358.122 421.353L357.804 420.516L348.513 424.045C349.918 427.194 351.711 427.262 354.956 426.03Z" fill="#E6E4E0"/>
</svg>
