<?xml version="1.0" encoding="UTF-8"?>
<svg id="Layer_2" data-name="Layer 2" xmlns="http://www.w3.org/2000/svg" viewBox="0 0 977.04 635.63">
  <defs>
    <style>
      .cls-1 {
        fill: #e6e4e0;
      }
    </style>
  </defs>
  <g id="Layer_1-2" data-name="Layer 1">
    <path class="cls-1" d="M253.55,355.89c-13.1,4.75-24.23,6.52-38.64,6.52-48.46,0-66.14-25.51-66.14-94.31V129.9h92.33v-9.49h-92.33V0L3.34,126.85l-3.34,3.05H35.95c17.5,0,31.65,12.89,31.57,28.73l-.76,140.57c0,29.25,1.75,53.44,17.38,71.2H243.06c4.07-4.43,7.8-9.08,11.14-13.92l-.65-.59Zm-121.45-61.35h-.45v-2.52h-19.24c.31,2.49,2.6,4.84,7.42,6.94v.03h-7.9v-20.13h7.9v.03c-4.82,2.1-7.11,4.45-7.42,6.97h19.24v-2.52h.45v11.2Zm0-35.56h-.45v-2.24h-10v6.61h10v-2.24h.45v10.64h-.45v-2.24h-18.23l-1.48,2.49v-11.14l1.48,2.49h7.73v-6.61h-7.73l-1.48,2.49v-11.14l1.48,2.49h18.23v-2.24h.45v10.64Zm0-17.88h-.45v-2.24h-18.2l-1.51,2.49v-17.44h7v.03c-4.82,2.63-6.52,5.46-6.55,8.76h8.96c-.08-1.76-1.57-3.72-3.7-4.76v-.03h7.81v.03c-2.18,1.06-3.64,2.94-3.72,4.76h9.91c-.06-3.3-1.68-6.13-6.55-8.76v-.03h7v17.19Z"/>
    <path class="cls-1" d="M829.25,464.36c-4.27,3.7-7.48,14.39-5.23,17.27,.72,.92,1.65,.96,2.8-.04,4.27-3.7,7.55-14.31,5.21-17.29-.65-.84-1.67-.9-2.78,.06Z"/>
    <path class="cls-1" d="M833.39,573.34c23.27,11.07,35.78,20.79,41.82,31.44h86.27c4.5-10.21,6.86-21.5,6.86-33.7,0-42.81-24.88-69.28-76.49-94.06l-41.04-19.71c-26.12-12.39-37.31-21.97-37.31-38.86,0-23.09,18.66-36.05,46.02-36.05,7.46,0,11.82,.56,20.52,2.82l77.11,93.49h.62l19.28-91.8c-43.53-11.83-84.58-14.64-113.8-14.64-31.53,0-61.15,6.14-85.08,17.44v156.67c2.77,1.51,5.63,2.99,8.59,4.43l46.64,22.53Zm-23.31-105.82c-3.17,2.21-7.33,1.15-10-2.69-1.36-1.95-2.45-4.16-3.13-6.45l6.83-2.74,.02,.02-3.79,7.39c.15,.65,.31,.94,.6,1.35,1.14,1.63,3.05,2.07,4.52,1.05,1.1-.77,1.63-2.02,1.41-3.85l-.4-3.61c-.32-2.95,.36-5.31,2.69-6.92,2.87-2,6.6-1.46,9.21,2.29,1.25,1.79,2.13,3.6,2.62,5.92l-6.02,2.18v-.02s3.32-6.83,3.32-6.83c-.21-.54-.33-.76-.65-1.22-.82-1.17-2.37-1.59-3.63-.71-1.01,.7-1.51,1.9-1.33,4.31l.28,4.27c.2,2.73-.44,4.81-2.53,6.27Zm24.52,13.55c-4.24,3.49-10.48,3.88-14.56-1.07-3.88-4.71-3.29-11.18,1.46-15.1,4.24-3.49,10.52-3.84,14.57,1.09,3.9,4.73,3.25,11.18-1.48,15.07Zm17.69,8.07l-.02-.02c.98-9.29,.13-12.09-1.53-13.17-1.03-.67-2.35-.4-3.57,1.48-3.9,5.98-2.22,14.06,2.77,17.33,.66,.43,1.54,.87,2.12,.95v.04c-2.43,1.28-5.94,1.07-8.78-.78-5.39-3.52-6.36-9.77-2.75-15.31,3.29-5.04,8.83-6.14,13.96-2.79,2.42,1.58,4.08,3.43,5.21,5.44l-7.41,6.84Zm14.22,17.43l-.19,.4-9.59-4.61,.19-.4,2.02,.97,7.89-16.41-1.59-2.44,10.04,4.83-2.9,.28-7.89,16.4,2.02,.97Zm27.55-1.51h-.02c-.34-5.49-2.18-8.23-5.16-9.66l-3.79,8.12c1.63,.67,4.04,.16,5.88-1.33h.03s-3.31,7.09-3.31,7.09h-.03c-.04-2.44-1.12-4.55-2.73-5.4l-4.2,8.98c3.02,1.35,6.27,1.08,10.71-2.22h.03s-2.96,6.35-2.96,6.35l-15.57-7.28,.19-.41,2.03,.95,7.71-16.48-1.62-2.42,15.8,7.39-2.96,6.34Zm22.53,15.12c.39-5.24-.62-8.37-2.7-9.82l-8.98,17.01,2.23,1.18-.21,.4-9.91-5.23,.21-.4,2.23,1.18,8.98-17.01c-2.35-.89-5.5,.04-9.61,3.32h-.02s3.69-7,3.69-7l17.81,9.4-3.69,6.98h-.02Zm20.54,13.48l-11.76,2.4-5.88,4.67,1.39,1.75-.35,.28-6.62-8.33,.35-.28,1.39,1.75,4.6-3.66,5.83-12.47-.19-2.67,7.12,8.97-2.73-1.01-4.89,10.5,10.2-3.81-.71-3.33,4.96,6.25-2.73-1.01Z"/>
    <path class="cls-1" d="M454.3,339.02c2.43-1.45,3.42-3.28,2.3-5.16l-.46-.77-8.54,5.09c1.93,2.86,3.71,2.61,6.69,.83Z"/>
    <polygon class="cls-1" points="481.02 383.69 484.42 375.32 476.46 379.68 481.02 383.69"/>
    <path class="cls-1" d="M438.72,255.6c.08-1.12-.67-1.93-2.24-2.04-6-.44-16.18,5.17-16.46,9.02-.09,1.23,.62,1.96,2.24,2.07,6,.44,16.18-5.06,16.47-9.05Z"/>
    <path class="cls-1" d="M710.68,116.59h-137.37c40.32,58.58,127.96,204.79,127.96,261.58,0,29.12-12.24,42.67-34.67,42.67-60.37,0-153.77-128.61-179.08-233.31h-74.32c-7.72,21.81-11.75,45.25-11.75,69.15,0,110.45,84.13,192.27,195.29,192.27,116.77,0,183.56-90.86,183.56-189.26,0-62.44-50.26-123.23-69.63-143.1Zm-291.95,142.05c.44-6.09,5.33-10.37,11.47-9.92,5.47,.4,10.26,4.48,9.8,10.85-.44,6.12-5.36,10.34-11.47,9.89-5.47-.4-10.26-4.42-9.8-10.82Zm1.09,30.95c-.9-6.52,1.59-9.4,7.53-10.22l10.29-1.42,1.13-2.67,1.52,11.04-1.81-2.27-10.68,1.47c-5.69,.78-7.3,2.62-6.9,5.53,.43,3.14,2.89,4.35,8.24,3.36l10.51-1.92,1.02-3.5,1.08,7.88-1.81-2.27-11.53,1.08c-5.83,.55-7.9-1.12-8.58-6.09Zm9.46,33.47l-3.77-10.54,.42-.15,.85,2.37,18.11-6.48c-1.13-2.24-4.08-3.68-9.33-4.04v-.03s7.42-2.66,7.42-2.66l6.78,18.95-7.43,2.66v-.03c3.82-3.6,5.19-6.59,4.63-9.06l-18.11,6.48,.85,2.37-.42,.15Zm17.15,31.34l-.38,.23-4.09-6.85,5.19-9.33-7.55,4.51,1.22,2.04-.38,.23-5.53-9.26,.38-.23,1.15,1.92,15.63-9.33,.02-2.91,5.41,9.06c2.83,4.74,3.03,8.3,.15,10.02-2.38,1.42-4.69,.88-6.86-1.22l-5.05,9.96,.69,1.16Zm15.87,19.9l-11.2-13.05,.34-.29,1.46,1.7,13.81-11.85-.48-2.88,11.36,13.24-5.31,4.56-.02-.02c1.94-5.13,1.4-8.39-.73-10.92l-6.8,5.83c1.21,1.28,3.61,1.81,5.9,1.21l.02,.02-5.93,5.09-.02-.02c.97-2.23,.85-4.6-.27-6.04l-7.52,6.46c2.19,2.47,5.27,3.56,10.68,2.39l.02,.02-5.31,4.56Zm22.75,20.61l-.3,.34-7.73-6.81,.3-.34,1.72,1.52,1.82-5.41-4.83-4.25-4.76,2.82,2.16,1.91-.3,.34-4.64-4.09,.3-.34,.86,.76,20.08-9.33,1.09,.96-6.73,21.08,.97,.85Zm23.05,4.54c.79-9.31-.12-12.08-1.8-13.14-1.05-.65-2.36-.35-3.54,1.55-3.78,6.06-1.93,14.11,3.13,17.26,.67,.42,1.56,.84,2.14,.91v.04c-2.41,1.33-5.91,1.19-8.79-.6-5.46-3.41-6.56-9.64-3.06-15.24,3.19-5.11,8.7-6.32,13.9-3.08,2.45,1.53,4.15,3.35,5.32,5.33l-7.26,6.99-.02-.02Zm32.75,3.96l-6.38,17.08,2.1,.79-.16,.42-9.97-3.73,.16-.42,2.1,.79,3.5-9.37-6.19-2.31-3.5,9.37,2.1,.78-.16,.42-9.97-3.73,.16-.42,2.1,.78,6.38-17.08-1.82-2.26,10.44,3.9-2.85,.52-2.71,7.24,6.19,2.31,2.71-7.24-1.81-2.26,10.44,3.9-2.85,.52Z"/>
    <polygon class="cls-1" points="341.64 395.97 333.43 395.97 335.58 401.64 341.64 395.97"/>
    <path class="cls-1" d="M354.32,425.99c2.64-1,3.94-2.63,3.17-4.68l-.32-.84-9.29,3.53c1.41,3.15,3.2,3.22,6.44,1.98Z"/>
    <path class="cls-1" d="M345.64,272.82h-20.8l-131.06,348.55h-12.54v14.26h113.85v-26.88l-25.46-.26c-26.09-.46-43.94-28.16-32.18-65.5l19.34-55.77h88.04l31.6,75.2h-32.8v6.4h49.82v-186.77l-47.82-109.22Zm-19.44,120.38l.41,1.07,22.11,1.12,.52,1.36-15.8,15.49,.46,1.2-.42,.16-3.66-9.63,.42-.16,.81,2.15,4.14-3.94-2.29-6.02-5.53,.27,1.02,2.7-.42,.16-2.2-5.79,.42-.16Zm-67.11,86.82l42.75-114.67,39.79,114.67h-82.55Zm84.79-40.24l-.42,.16-2.83-7.46,6.74-8.28-8.22,3.12,.85,2.22-.42,.16-3.83-10.08,.42-.16,.8,2.09,17.01-6.46,.53-2.87,3.75,9.87c1.96,5.16,1.54,8.7-1.6,9.89-2.59,.98-4.77,.04-6.54-2.4l-6.7,8.93,.48,1.25Zm19.83,18.94v-.03c3.75-3.67,5.06-6.69,4.45-9.15l-17.98,6.83,.89,2.36-.42,.16-3.98-10.47,.42-.16,.9,2.36,17.98-6.83c-1.17-2.22-4.15-3.6-9.4-3.86v-.03s7.37-2.8,7.37-2.8l7.15,18.82-7.38,2.8Z"/>
  </g>
</svg>