<?xml version="1.0" encoding="UTF-8"?>
<svg id="Layer_2" data-name="Layer 2" xmlns="http://www.w3.org/2000/svg" viewBox="0 0 78.34 78.54">
  <defs>
    <style>
      .cls-1, .cls-2 {
        fill: #e6e4e0;
      }

      .cls-2 {
        fill-rule: evenodd;
      }
    </style>
  </defs>
  <g id="Layer_1-2" data-name="Layer 1">
    <path class="cls-1" d="M0,78.54l5.61-20.94C-4.77,38.86,2,15.25,20.74,4.87c18.74-10.38,42.35-3.61,52.73,15.13,10.38,18.74,3.61,42.35-15.13,52.73-11.59,6.42-25.65,6.48-37.29,.17L0,78.54Zm22.1-13.48l1.32,.79c14.94,8.92,34.28,4.04,43.19-10.9,8.92-14.94,4.04-34.28-10.9-43.19C40.78,2.84,21.44,7.72,12.52,22.65c-5.99,10.03-5.94,22.55,.14,32.52l.81,1.34-3.13,11.69,11.76-3.15Z"/>
    <path class="cls-2" d="M53.82,44.3c-1.59-1-3.66-2-5.53-1.25-1.44,.59-2.36,2.84-3.29,4-.41,.56-1.18,.73-1.79,.39-5.26-2.06-9.67-5.85-12.51-10.73-.5-.64-.42-1.56,.19-2.09,.9-1.06,2-2.26,2.27-3.69,.09-1.52-.26-3.04-1-4.37-.76-1.63-1.6-4-3.23-4.86-1.6-.75-3.49-.47-4.8,.71-2.24,1.93-3.48,4.77-3.38,7.72,0,.83,.11,1.65,.31,2.45,.51,1.91,1.31,3.74,2.35,5.42,.75,1.28,1.57,2.53,2.45,3.73,2.88,3.95,6.49,7.3,10.64,9.88,2.09,1.3,4.31,2.36,6.64,3.15,2.6,.86,4.92,1.76,7.72,1.22,3.05-.47,5.67-2.42,7-5.21,.38-.83,.49-1.76,.32-2.66-.39-1.84-2.87-2.93-4.36-3.81Z"/>
  </g>
</svg>